<svg class="animated" id="freepik_stories-messenger" xmlns="http://www.w3.org/2000/svg" viewBox="0 0 500 500" version="1.1" xmlns:xlink="http://www.w3.org/1999/xlink" xmlns:svgjs="http://svgjs.com/svgjs"><style>svg#freepik_stories-messenger:not(.animated) .animable {opacity: 0;}svg#freepik_stories-messenger.animated #freepik--Character--inject-31 {animation: 1s 1 forwards cubic-bezier(.36,-0.01,.5,1.38) fadeIn,1.5s Infinite  linear wind;animation-delay: 0s,1s;}svg#freepik_stories-messenger.animated #freepik--speech-bubble--inject-31 {animation: 1s 1 forwards cubic-bezier(.36,-0.01,.5,1.38) fadeIn,1.5s Infinite  linear wind;animation-delay: 0s,1s;}svg#freepik_stories-messenger.animated #freepik--Boxes--inject-31 {animation: 1s 1 forwards cubic-bezier(.36,-0.01,.5,1.38) fadeIn,1.5s Infinite  linear wind;animation-delay: 0s,1s;}            @keyframes fadeIn {                0% {                    opacity: 0;                }                100% {                    opacity: 1;                }            }                    @keyframes wind {                0% {                    transform: rotate( 0deg );                }                25% {                    transform: rotate( 1deg );                }                75% {                    transform: rotate( -1deg );                }            }        .animator-hidden { display: none; }</style><g id="freepik--background-complete--inject-31" class="animable animator-hidden" style="transform-origin: 252.136px 244.72px;"><path d="M288.71,308.8c-.3,0-.6,0-.91,0A3.47,3.47,0,0,1,288.71,308.8Z" style="fill: rgb(235, 235, 235); transform-origin: 288.255px 308.785px;" id="elh6gzdzce0wj" class="animable"></path><polygon points="246.64 89.38 246.64 444.34 243.9 444.34 216.16 444.29 215.99 444.29 162.44 444.2 161.26 444.2 144.16 444.18 140.94 444.17 140.76 444.17 94.29 444.09 87.22 444.06 86.03 444.05 62.82 443.94 62.82 89.38 246.64 89.38" style="fill: rgb(235, 235, 235); transform-origin: 154.73px 266.86px;" id="elkebdfc9cuz" class="animable"></polygon><path d="M140.85,113.67l-13.56-.14-13.55,0-27.12-.09h-1v1l.16,43.23v.81h.8l27.31-.34,26.92-.47-27.3-.47-26.13-.33v.8l-.8-.81h.8l.17-41.47h-1l1-1v1l26.15-.09,13.55-.06,12.88-.13v-.68l.69.67h-.68l.12,10,.16,10.74.4,21.79.39-21.46.16-10.86.13-10.91v-.68Z" style="fill: rgb(219, 219, 219); transform-origin: 113.56px 135.96px;" id="elswbvpk0ull" class="animable"></path><path d="M216.64,125.27l.13-10.91v-.68h-.7l-13.55-.14-13.57,0-27.11-.09h-1v1l.17,43.23v.81h.79l27.31-.34,26.92-.47-27.31-.47-26.11-.33v.8l-.81-.81h.81l.16-41.47h-1l1-1v1l26.14-.09,13.57-.06,12.88-.13v-.68l.68.67h-.67l.11,10,.17,10.74.39,21.79.39-21.46.17-10.86" style="fill: rgb(219, 219, 219); transform-origin: 188.805px 135.97px;" id="elo1s0ixjsco" class="animable"></path><path d="M140.85,180.92l-54.23-.11h-1v1l.11,62.09q0,15.52.13,31.05L86.08,306v.54h.53l27.23-.25,27-.28-27.23-.29-26.46-.24V306l-.54-.54h.54l.18-30.53q.1-15.53.13-31.05l.12-61.12h-1l1-1v1l52.4-.1v-.87l.86.87H140c0,10,0,20,.1,30l.22,31,.54,62.33.53-61.87.23-31.14c.09-10.38.07-20.79.1-31.19v-.86Z" style="fill: rgb(219, 219, 219); transform-origin: 113.67px 243.675px;" id="el5e4clo90q2g" class="animable"></path><path d="M216.08,180.92l-54.23-.11h-1v1l.13,62.09c0,10.35.06,20.7.12,31.05l.19,31.06v.54h.53l27.23-.25,27-.28-27.23-.29-26.46-.24V306l-.54-.54h.54l.18-30.53q.12-15.53.13-31.05l.12-61.12h-1l1-1v1l52.39-.1v-.87l.87.87h-.87c0,10,0,20,.11,30l.22,31,.54,62.33.54-61.87.21-31.14c.1-10.38.08-20.79.11-31.19v-.86Z" style="fill: rgb(219, 219, 219); transform-origin: 188.88px 243.68px;" id="el9ujh798mx4g" class="animable"></path><path d="M140.85,329.3l-54.23-.1h-1v1l.11,62.1q0,15.53.13,31.05L86,443.66v.39h1.19v-.41l.11-20.33q.1-15.52.13-31.05l.12-61.13h-1l1-1v1L140,331v-.86l.86.86H140c0,10,0,20,.1,30l.22,31,.44,51.49v.63h.18v-.63l.43-51.05.23-31.13c.09-10.39.07-20.79.1-31.19v-.87Z" style="fill: rgb(219, 219, 219); transform-origin: 113.66px 386.66px;" id="elgu27wzf24c7" class="animable"></path><path d="M216.08,329.3l-54.23-.1h-1v1l.13,62.1c0,10.35.06,20.7.12,31.05l.12,20.19v.69h1.18v-.69l.12-20.19q.12-15.52.13-31.05l.12-61.13h-1l1-1v1l52.39-.11v-.86l.87.86h-.87c0,10,0,20,.11,30l.22,31,.44,51.37v.87h.17v-.87l.45-50.93.21-31.13c.1-10.39.08-20.79.11-31.19v-.87Z" style="fill: rgb(219, 219, 219); transform-origin: 188.86px 386.75px;" id="el0itbjgrs61li" class="animable"></path><polygon points="263.08 72.47 263.08 444.31 246.64 444.34 246.64 89.38 62.82 89.38 62.82 443.94 46.39 443.87 46.39 72.47 263.08 72.47" style="fill: rgb(219, 219, 219); transform-origin: 154.735px 258.405px;" id="elqvd5dtkygad" class="animable"></polygon><rect x="223.42" y="305.98" width="16.67" height="45.65" style="fill: rgb(219, 219, 219); transform-origin: 231.755px 328.805px;" id="elkufzz71usu" class="animable"></rect><path d="M238.48,313.93a6.73,6.73,0,1,1-6.73-6.91A6.82,6.82,0,0,1,238.48,313.93Z" style="fill: rgb(199, 199, 199); transform-origin: 231.752px 313.75px;" id="elo279uok8aqg" class="animable"></path><rect x="394.84" y="45.1" width="34.28" height="14.49" style="fill: rgb(235, 235, 235); transform-origin: 411.98px 52.345px;" id="elcqz9drx9p8" class="animable"></rect><rect x="375.71" y="63.37" width="34.28" height="14.49" style="fill: rgb(235, 235, 235); transform-origin: 392.85px 70.615px;" id="elbjksl7xbg9o" class="animable"></rect><rect x="413.96" y="63.37" width="34.28" height="14.49" style="fill: rgb(235, 235, 235); transform-origin: 431.1px 70.615px;" id="el071gp67mkvdh" class="animable"></rect><rect x="287.8" y="194.54" width="34.28" height="14.49" style="fill: rgb(235, 235, 235); transform-origin: 304.94px 201.785px;" id="elucvs01na7j" class="animable"></rect><rect x="38.96" y="45.12" width="34.28" height="14.49" style="fill: rgb(235, 235, 235); transform-origin: 56.1px 52.365px;" id="elt61ihvikr4" class="animable"></rect><g id="el6j9sy3juggk"><rect x="394.84" y="361.03" width="34.28" height="14.49" style="fill: rgb(235, 235, 235); transform-origin: 411.98px 368.275px; transform: rotate(180deg);" class="animable"></rect></g><g id="el2c4xrvmomxt"><rect x="413.96" y="342.77" width="34.28" height="14.49" style="fill: rgb(235, 235, 235); transform-origin: 431.1px 350.015px; transform: rotate(180deg);" class="animable"></rect></g><g id="elb9jka48r64"><rect x="351.26" y="87.65" width="52.67" height="83.05" style="fill: rgb(235, 235, 235); transform-origin: 377.595px 129.175px; transform: rotate(-87.97deg);" class="animable"></rect></g><path d="M420,104.33c-3.46,3.09-7,6-10.47,9.07s-7,5.94-10.58,8.87q-5.54,4.59-11.09,9.1l-.33.29-9.86,8-.48.37-.45-.41q-4.63-4.31-9.25-8.65a3,3,0,0,1-.33-.3c-3.49-3.26-7-6.54-10.43-9.88-3.31-3.15-6.62-6.36-9.91-9.57s-6.57-6.46-9.81-9.79c3.47,2.88,6.87,5.88,10.29,8.82s6.83,6,10.22,9q5.65,5,11.3,10.21s0,0,0,0l8.45,7.72c3-2.37,6-4.76,9-7.1,0,0,0,0,0,0q6-4.74,12-9.4,5.38-4.16,10.81-8.26C412.76,109.71,416.36,107,420,104.33Z" style="fill: rgb(255, 255, 255); transform-origin: 378.505px 120.73px;" id="eluboh22i64pb" class="animable"></path><path d="M368.93,130.66l-.11.08c-.45.36-.9.72-1.35,1.06-2.14,1.69-4.33,3.29-6.56,4.85-2.71,1.93-5.48,3.76-8.27,5.58s-5.6,3.56-8.47,5.26-5.76,3.35-8.75,4.85c2.6-2.11,5.29-4.08,8-6s5.5-3.76,8.28-5.58,5.61-3.57,8.48-5.27c2.28-1.35,4.6-2.68,7-3.92.54-.29,1.09-.57,1.65-.85Z" style="fill: rgb(255, 255, 255); transform-origin: 352.175px 141.5px;" id="eloj9txrn0c7" class="animable"></path><path d="M418,155.27c-2.87-1.71-5.65-3.57-8.38-5.46s-5.42-3.86-8.09-5.84-5.29-4.05-7.86-6.16c-2.1-1.71-4.17-3.45-6.17-5.28l-1.29-1.17a.76.76,0,0,0-.09-.09l.12.06,1.59,1c2.27,1.41,4.48,2.89,6.67,4.41,2.74,1.89,5.41,3.86,8.08,5.85s5.28,4,7.85,6.16S415.58,153,418,155.27Z" style="fill: rgb(255, 255, 255); transform-origin: 402.06px 143.27px;" id="elimgf8133dk" class="animable"></path><g id="elrivjdh03szf"><rect x="411.33" y="174.59" width="38.44" height="60.61" style="fill: rgb(235, 235, 235); transform-origin: 430.55px 204.895px; transform: rotate(-72deg);" class="animable"></rect></g><path d="M465.3,196c-3.05,1.47-6.11,2.83-9.17,4.26s-6.13,2.75-9.2,4.1-6.41,2.79-9.61,4.16l-.29.14-8.51,3.6-.42.16-.23-.37q-2.39-4-4.76-7.93l-.16-.27c-1.8-3-3.58-6-5.34-9s-3.36-5.79-5-8.71-3.31-5.85-4.92-8.83c1.86,2.71,3.64,5.5,5.45,8.25s3.59,5.57,5.36,8.38q3,4.68,5.88,9.44s0,0,0,0c1.47,2.36,2.92,4.74,4.38,7.11,2.57-1.07,5.15-2.14,7.72-3.18l0,0q5.16-2.12,10.31-4.18c3.07-1.23,6.16-2.44,9.24-3.63S462.21,197.08,465.3,196Z" style="fill: rgb(255, 255, 255); transform-origin: 436.495px 194.865px;" id="el4s8o8ypmzn" class="animable"></path><path d="M424.17,204.19l-.09,0-1.16.48c-1.84.75-3.7,1.43-5.58,2.08-2.29.81-4.6,1.54-6.92,2.26s-4.65,1.37-7,2-4.72,1.2-7.11,1.65c2.24-1,4.52-1.8,6.81-2.6s4.62-1.53,6.93-2.25,4.66-1.38,7-2c1.87-.5,3.76-1,5.67-1.36l1.33-.26Z" style="fill: rgb(255, 255, 255); transform-origin: 410.24px 208.425px;" id="el0hnls9crmnmt" class="animable"></path><path d="M453.67,231.32c-1.67-1.78-3.25-3.64-4.78-5.52s-3-3.79-4.51-5.72-2.89-3.9-4.27-5.9c-1.13-1.62-2.24-3.26-3.28-4.94-.22-.37-.44-.72-.66-1.08a.56.56,0,0,0-.05-.08l.07.07.92,1c1.31,1.44,2.56,2.93,3.8,4.43,1.54,1.88,3,3.8,4.49,5.73s2.9,3.9,4.28,5.9S452.42,229.22,453.67,231.32Z" style="fill: rgb(255, 255, 255); transform-origin: 444.895px 219.7px;" id="eltn17i4rvcsi" class="animable"></path></g><g id="freepik--Table--inject-31" class="animable" style="transform-origin: 250px 443.84px;"><polygon points="44.36 443.84 95.77 443.6 147.18 443.51 250 443.34 352.82 443.51 404.23 443.6 455.64 443.84 404.23 444.08 352.82 444.17 250 444.34 147.18 444.17 95.77 444.08 44.36 443.84" style="fill: rgb(38, 50, 56); transform-origin: 250px 443.84px;" id="elm1sydxb2w5" class="animable"></polygon></g><g id="freepik--Character--inject-31" class="animable" style="transform-origin: 249.986px 269.194px;"><path d="M170.36,345.75s23.26,85.47,28.87,98.09h90.22c-15.57-40.77-32.05-94.12-32.52-97.83,0-.17,0-.26,0-.26Z" style="fill: rgb(55, 71, 79); transform-origin: 229.905px 394.795px;" id="elynafcc5to5" class="animable"></path><path d="M183,357.12c.57,6.94,25.81,80.75,27.93,86.72h1.3s-27.41-81.66-28.88-86.72C183.31,356.91,183,356.91,183,357.12Z" style="fill: rgb(38, 50, 56); transform-origin: 197.615px 400.401px;" id="elnn0d3iol2sm" class="animable"></path><path d="M244.4,345.74l-11.65,76.74-.41,2.6h0l-1,6.94-.08.49-.28,1.85v0l-1.43,9.45H199.23c-5.6-12.62-28.87-98.1-28.87-98.1Z" style="fill: rgb(38, 50, 56); transform-origin: 207.38px 394.76px;" id="eledg57o6ud6" class="animable"></path><path d="M125.12,443.84h85.37c0-.36.06-.65.07-.89s.05-.58.05-.58l1.43-.77c5-2.74,9.43-4.87,13.06-6.49.62-.27,1.21-.53,1.79-.8,1.64-.71,3.11-1.31,4.33-1.79,3.15-1.24,4.89-1.8,4.89-1.8.11-.26.2-.51.29-.77,12.37-31.49,19.83-79.47,20.53-83.94,0-.24,0-.34,0-.34H135C127.76,368.37,113.21,410.11,125.12,443.84Z" style="fill: rgb(55, 71, 79); transform-origin: 188.762px 394.755px;" id="el1z3vouqd1xt" class="animable"></path><path d="M240.47,428.47c-10.34,3.56-20.32,8.61-29.86,13.91a.34.34,0,0,0,.28.61c10.06-4.32,20.31-8.45,30.12-13.32A.66.66,0,0,0,240.47,428.47Z" style="fill: rgb(38, 50, 56); transform-origin: 225.906px 435.717px;" id="el0jg3idyc3k4n" class="animable"></path><path d="M243.67,359.44c0-.35-.64-.43-.64-.05.08,11.94-.68,22.45-1.68,33.61-.47,5.18-4.64,33.82-13.63,31.73-1.5-.35-2.27-1.83-2.5-4.09-.29-2.73.74-6.08,1.19-8.79,1-6,1.8-12,2.31-18.06a164.65,164.65,0,0,0-.36-33.88.29.29,0,0,0-.58,0c0,15.65-.4,31.27-2.74,46.77-1.12,7.45-4.87,18.66,2.92,19.81S241,408.9,242,403.76C244.69,389.43,244.8,374,243.67,359.44Z" style="fill: rgb(38, 50, 56); transform-origin: 233.75px 392.84px;" id="elqe4c5s6qqsb" class="animable"></path><path d="M228,425.5a50,50,0,0,0-2,5.94,13.45,13.45,0,0,0-.84,4.88.35.35,0,0,0,.62.13c1.06-1.33,1.5-3.16,2.09-4.75.69-1.83,1.41-3.65,2-5.51A1,1,0,0,0,228,425.5Z" style="fill: rgb(38, 50, 56); transform-origin: 227.533px 430.756px;" id="el40vqb0p35x2" class="animable"></path><path d="M187.3,368.81a15.41,15.41,0,0,0-.38-3.72.19.19,0,0,0-.36,0,15,15,0,0,0-.42,3.21c-.13,1.23-.29,2.46-.42,3.7a54.22,54.22,0,0,1-1.32,7.48,26.62,26.62,0,0,1-6.86,12.33,35.85,35.85,0,0,1-11.6,7.64c-4.83,2-9.91,2.8-14.89,4.27a.19.19,0,0,0,.06.37,43,43,0,0,0,16.12-3.18,34.52,34.52,0,0,0,12.1-7.72,27,27,0,0,0,7.06-12.68,38.61,38.61,0,0,0,1-7.5A34.77,34.77,0,0,0,187.3,368.81Z" style="fill: rgb(38, 50, 56); transform-origin: 169.169px 384.525px;" id="eljsg9g0n0of" class="animable"></path><path d="M137.09,443.84a91.2,91.2,0,0,1-4.7-22.87,147.8,147.8,0,0,1-.12-23.43c.4-3.88.7-7.78,1.36-11.63.32-1.93.55-3.87,1-5.78l1.2-5.73c.21-1,.39-1.91.62-2.86l.76-2.83,1.53-5.64c.54-1.87,1.22-3.7,1.82-5.55s1.25-3.69,1.9-5.52c-.86,3.8-1.92,7.53-2.77,11.32L138.43,369l-.61,2.84c-.2.95-.34,1.9-.51,2.86l-1,5.72c-.35,1.9-.53,3.83-.8,5.74-.6,3.82-.88,7.68-1.25,11.53a190.38,190.38,0,0,0-.32,23.16c.11,1.93.2,3.86.41,5.78l.26,2.89.36,2.88A90.51,90.51,0,0,0,137.09,443.84Z" style="fill: rgb(38, 50, 56); transform-origin: 137.162px 397.92px;" id="eleraiss1y0fq" class="animable"></path><path d="M213.72,230.16c16.36,26.87,48.75,69.2,64.38,78.62,17.37,10.47,67-25.07,99.14-46.35,6.38-4.23-23.38-55.82-30-51-17.19,12.71-52.74,42.23-57.46,41.23-3.86-.82-36.68-23.68-55.07-36.78C205.49,195.06,202.2,211.25,213.72,230.16Z" style="fill: rgb(211, 118, 106); transform-origin: 292.836px 258.397px;" id="elxncf2dhdpea" class="animable"></path><path d="M334.69,219l27.6,59.29s-60.09,39.29-78.78,34.51S225.1,253,213.45,231.4s-6.23-33.73,16.35-19.24,57.34,37.66,61,37.78S334.69,219,334.69,219Z" style="fill: rgb(255, 199, 39); transform-origin: 284.89px 259.523px;" id="el71fel1uobig" class="animable"></path><path d="M345.27,285.37c-7.89-25.33-20-50.76-21.84-55.34-.08-.21-.42-.05-.33.16,2,4.4,12.73,35,21.81,55.36C345,285.78,345.35,285.61,345.27,285.37Z" style="fill: rgb(38, 50, 56); transform-origin: 334.183px 257.795px;" id="elx9njvtur3u" class="animable"></path><g id="elwtcbufnqo8h"><path d="M301.61,310.33c-7.22,2.44-13.65,3.59-18.1,2.45C264.82,308,225.09,253,213.44,231.41c-5-9.24-6.84-16.74-5.56-21.19C230.27,234.28,282.66,290.15,301.61,310.33Z" style="opacity: 0.1; transform-origin: 254.548px 261.721px;" class="animable"></path></g><path d="M359.38,274.36,334.89,221c.86-1.11,4.54-3.31,8.17-6.73,0,0,9.52-13.1,13.36-27.31,3.24-11.94,6.69-30,13.18-28.53,9.46,2.17,7.84,25.57,6.1,39,6.8-2.74,12.92-4.46,16.84-4.16,13,1,16,59.83,5,67.33C386.92,267.73,366.59,275.4,359.38,274.36Z" style="fill: rgb(211, 118, 106); transform-origin: 369.589px 216.4px;" id="eludj37tvty7m" class="animable"></path><polygon points="394.7 279.88 308.29 273.43 308.29 273.43 316.79 159.57 316.79 159.57 403.2 166.03 394.7 279.88" style="fill: rgb(69, 90, 100); transform-origin: 355.745px 219.725px;" id="elo1jlpnjkn6f" class="animable"></polygon><g id="el4b0ra78ht7k"><rect x="320.63" y="169.97" width="70.22" height="99.52" style="fill: rgb(255, 255, 255); transform-origin: 355.74px 219.73px; transform: rotate(4.27deg);" class="animable"></rect></g><g id="eltv9ht5vmyx"><rect x="320.69" y="168.33" width="26.31" height="99.52" style="fill: rgb(235, 235, 235); transform-origin: 333.845px 218.09px; transform: rotate(4.27deg);" class="animable"></rect></g><path d="M340.15,188.86a7,7,0,0,1-10.19-5.1,7,7,0,1,1,10.19,5.1Z" style="fill: rgb(166, 166, 166); transform-origin: 336.875px 182.673px;" id="elhk6ycmf75cs" class="animable"></path><path d="M339.1,182a2.15,2.15,0,1,1-2-2.29A2.15,2.15,0,0,1,339.1,182Z" style="fill: rgb(255, 255, 255); transform-origin: 336.955px 181.855px;" id="elux2dw2c2q6b" class="animable"></path><path d="M340.21,188l-.06.89a7.08,7.08,0,0,1-7.39-.56l.07-.88a3.7,3.7,0,0,1,7.38.55Z" style="fill: rgb(255, 255, 255); transform-origin: 336.49px 186.851px;" id="elxh9qfnxqjcl" class="animable"></path><g id="elf52mf7738qg"><rect x="354.6" y="178.89" width="18.95" height="1.31" style="fill: rgb(235, 235, 235); transform-origin: 364.075px 179.545px; transform: rotate(4.27deg);" class="animable"></rect></g><g id="eldaho70q012h"><rect x="354.31" y="183.01" width="32.75" height="1.31" style="fill: rgb(235, 235, 235); transform-origin: 370.685px 183.665px; transform: rotate(4.27deg);" class="animable"></rect></g><g id="elhacfrg27ard"><rect x="354.05" y="186.35" width="25.45" height="1.31" style="fill: rgb(235, 235, 235); transform-origin: 366.775px 187.005px; transform: rotate(4.27deg);" class="animable"></rect></g><g id="elk4ftv8ziqln"><rect x="353.53" y="193.18" width="14.69" height="1.31" style="fill: rgb(235, 235, 235); transform-origin: 360.875px 193.835px; transform: rotate(4.27deg);" class="animable"></rect></g><g id="elndgx2dhmmr9"><rect x="353.25" y="197.19" width="25.45" height="1.31" style="fill: rgb(235, 235, 235); transform-origin: 365.975px 197.845px; transform: rotate(4.27deg);" class="animable"></rect></g><g id="elexgooeokkq"><rect x="352.97" y="201.07" width="32.75" height="1.31" style="fill: rgb(235, 235, 235); transform-origin: 369.345px 201.725px; transform: rotate(4.27deg);" class="animable"></rect></g><g id="el7eub8t9sdl"><rect x="352.71" y="204.17" width="18.95" height="1.31" style="fill: rgb(235, 235, 235); transform-origin: 362.185px 204.825px; transform: rotate(4.27deg);" class="animable"></rect></g><g id="elsyifs95uwb8"><rect x="352.16" y="211.91" width="32.75" height="1.31" style="fill: rgb(235, 235, 235); transform-origin: 368.535px 212.565px; transform: rotate(4.00417deg);" class="animable"></rect></g><g id="elurk4dm3x3"><rect x="351.9" y="215.19" width="23.76" height="1.31" style="fill: rgb(235, 235, 235); transform-origin: 363.78px 215.845px; transform: rotate(4.27deg);" class="animable"></rect></g><g id="el9qoc99x13yn"><rect x="351.64" y="218.57" width="17.64" height="1.31" style="fill: rgb(235, 235, 235); transform-origin: 360.46px 219.225px; transform: rotate(4.27deg);" class="animable"></rect></g><g id="el1nv90ynkg3b"><rect x="351.35" y="222.62" width="29.5" height="1.31" style="fill: rgb(235, 235, 235); transform-origin: 366.1px 223.275px; transform: rotate(4.27deg);" class="animable"></rect></g><g id="elsgayk3ykcw"><rect x="350.82" y="229.63" width="23.76" height="1.31" style="fill: rgb(235, 235, 235); transform-origin: 362.7px 230.285px; transform: rotate(4.27deg);" class="animable"></rect></g><g id="ellpeooelj5t"><rect x="350.54" y="233.58" width="32.75" height="1.31" style="fill: rgb(235, 235, 235); transform-origin: 366.915px 234.235px; transform: rotate(4.27deg);" class="animable"></rect></g><g id="el88stiwlf5qh"><rect x="350" y="240.68" width="29.5" height="1.31" style="fill: rgb(235, 235, 235); transform-origin: 364.75px 241.335px; transform: rotate(4.27deg);" class="animable"></rect></g><g id="elbwk916o19ng"><rect x="349.75" y="243.85" width="17.47" height="1.31" style="fill: rgb(235, 235, 235); transform-origin: 358.485px 244.505px; transform: rotate(4.27deg);" class="animable"></rect></g><g id="elcau3r1k8xwj"><rect x="349.46" y="248.03" width="32.75" height="1.31" style="fill: rgb(235, 235, 235); transform-origin: 365.835px 248.685px; transform: rotate(4.00417deg);" class="animable"></rect></g><g id="el8cbh88hg5kj"><rect x="348.93" y="254.92" width="23.76" height="1.31" style="fill: rgb(235, 235, 235); transform-origin: 360.81px 255.575px; transform: rotate(4.27deg);" class="animable"></rect></g><g id="elph1gmtiezp"><rect x="348.65" y="258.86" width="32.75" height="1.31" style="fill: rgb(235, 235, 235); transform-origin: 365.025px 259.515px; transform: rotate(4.00417deg);" class="animable"></rect></g><g id="elipvzg89sq4"><rect x="348.38" y="262.36" width="29.5" height="1.31" style="fill: rgb(235, 235, 235); transform-origin: 363.13px 263.015px; transform: rotate(4.00417deg);" class="animable"></rect></g><g id="eledmboqobmpj"><rect x="328.9" y="194.74" width="8.7" height="1.31" style="fill: rgb(166, 166, 166); transform-origin: 333.25px 195.395px; transform: rotate(4.00417deg);" class="animable"></rect></g><g id="elqcicbytx06p"><rect x="328.62" y="198.57" width="14.48" height="1.31" style="fill: rgb(166, 166, 166); transform-origin: 335.86px 199.225px; transform: rotate(4.27deg);" class="animable"></rect></g><g id="eligb5wxf87pg"><rect x="328.35" y="202.09" width="12.1" height="1.31" style="fill: rgb(166, 166, 166); transform-origin: 334.4px 202.745px; transform: rotate(4.27deg);" class="animable"></rect></g><g id="elhl4wizk4go4"><rect x="327.81" y="209.41" width="14.48" height="1.31" style="fill: rgb(166, 166, 166); transform-origin: 335.05px 210.065px; transform: rotate(4.27deg);" class="animable"></rect></g><g id="elfupgxi9ga8a"><rect x="327.54" y="213.05" width="15.38" height="1.31" style="fill: rgb(166, 166, 166); transform-origin: 335.23px 213.705px; transform: rotate(4.27deg);" class="animable"></rect></g><g id="elj10ft650az"><rect x="327.27" y="216.49" width="10.79" height="1.31" style="fill: rgb(166, 166, 166); transform-origin: 332.665px 217.145px; transform: rotate(4.27deg);" class="animable"></rect></g><g id="elc9rz30eng9"><rect x="327" y="220.18" width="12.75" height="1.31" style="fill: rgb(166, 166, 166); transform-origin: 333.375px 220.835px; transform: rotate(4.00417deg);" class="animable"></rect></g><g id="elmwjtrbl0yw7"><rect x="337.95" y="156.17" width="43.92" height="15.56" style="fill: rgb(166, 166, 166); transform-origin: 359.91px 163.95px; transform: rotate(4.27deg);" class="animable"></rect></g><polygon points="375.62 163.38 344.46 161.05 344.46 161.05 345.36 149.01 345.36 149.01 376.52 151.33 375.62 163.38 375.62 163.38" style="fill: rgb(166, 166, 166); transform-origin: 360.49px 156.195px;" id="elsyhgh27a8a9" class="animable"></polygon><path d="M372.14,195.64c-2.83,6.19,6.08,6,6.08,6S365.47,205,365,212.51c-.41,7.24,10.34,6.61,11.11,6.57-.67.19-12.31,3.61-12,11.19.34,7.89,11,5.41,11.71,5.24-.58.38-8.17,5.45-6.62,11.16,2.68,9.81,22.46-2.64,30.4-.47,0,0-2.12,13.88-2.1,14.29,0,0,19.05-11.46,21.37-22.33a7.11,7.11,0,0,0-3.88-8s6.55-3,6.49-9c-.05-3.07-5-5.74-5-5.74s5.15-2.63,4.76-7.95c-.3-4.24-5.22-6.26-5.22-6.26s3.77-4.82,2.06-9.05C414.67,183.6,378.21,182.41,372.14,195.64Z" style="fill: rgb(211, 118, 106); transform-origin: 392.792px 223.098px;" id="eln0u53etbf2d" class="animable"></path><path d="M415.33,200.78a.1.1,0,0,0,0-.19c-11.9-3.32-26-3.32-37.63,1-.39.14-.32.83.13.75C390.73,200.18,402.31,199.3,415.33,200.78Z" style="fill: rgb(38, 50, 56); transform-origin: 396.422px 200.28px;" id="el9ntm97l6ypc" class="animable"></path><path d="M416.7,215.35c.14,0,.17-.21,0-.25-12.27-3.36-28.14-2.92-41,3.63-.44.23-.61.87-.09.65C384.52,215.67,405,214,416.7,215.35Z" style="fill: rgb(38, 50, 56); transform-origin: 396.053px 216.232px;" id="el3l9qyh3r9yu" class="animable"></path><path d="M375.11,236.28c12.56-5.81,25.72-7,39.41-6.3.18,0,.17-.24,0-.29-6.61-2.17-15.38-1.72-22.18-.78a36.4,36.4,0,0,0-17.46,6.93C374.71,236,374.85,236.4,375.11,236.28Z" style="fill: rgb(38, 50, 56); transform-origin: 394.728px 232.216px;" id="ele55vwjcmwx9" class="animable"></path><path d="M256.89,345.75l-3.53-38.6s10.31-15.76,8.8-34.38c-1.09-13.56-39.8-61-42.29-63.28-10-9.33-26.89-5.61-33.82-.37-38.38,29-38.05,75.37-51,136.55Z" style="fill: rgb(255, 199, 39); transform-origin: 198.681px 274.761px;" id="elkjge2i5if3" class="animable"></path><path d="M256.89,345.75l-3.53-38.6s13.28-17.7,8.8-34.38-17.68-31.9-17.68-31.9H187.4s-5.17,49.94-18.24,58.44a36.7,36.7,0,0,1-27,5.56L135,345.67Z" style="fill: rgb(55, 71, 79); transform-origin: 199.042px 293.31px;" id="elf9thempkt5j" class="animable"></path><path d="M216.94,302.1a112,112,0,0,1,16.59.26c2.74.28,5.44.69,8.15,1.15,1.36.24,2.71.42,4.06.6a17.63,17.63,0,0,0,4.29.17.1.1,0,0,1,0,.2,24.09,24.09,0,0,1-8,.37c-2.78-.26-5.54-.65-8.32-.94-5.6-.59-11.2-1.17-16.83-1.35C216.68,302.55,216.68,302.12,216.94,302.1Z" style="fill: rgb(38, 50, 56); transform-origin: 233.433px 303.467px;" id="el7br43dhl5i9" class="animable"></path><path d="M204.18,308.94a120.77,120.77,0,0,1,13.43-2.66c2.27-.31,4.53-.49,6.82-.61,1.08-.05,2.18-.09,3.27-.11s2.4.11,3.6.07c.13,0,.15.19,0,.19-1.13.08-2.26.34-3.38.48l-3.39.41c-2.26.28-4.51.59-6.78.85-4.53.52-9,1.08-13.55,1.75C204,309.35,204,309,204.18,308.94Z" style="fill: rgb(38, 50, 56); transform-origin: 217.726px 307.436px;" id="elhlzocode25" class="animable"></path><path d="M194.21,225.53c-7.06,10.05-60.5,73.56-75.59,83.16C107.15,316,77,320.46,78.55,292c1-19,77-72.6,107.66-85.59C200.3,200.4,209,204.45,194.21,225.53Z" style="fill: rgb(255, 199, 39); transform-origin: 140.195px 259.025px;" id="el5v9sapkik12" class="animable"></path><path d="M90.65,313.11a31.59,31.59,0,0,0,13.81.61A36.66,36.66,0,0,0,117.37,309a47,47,0,0,0,5.64-4c1.78-1.46,3.48-3.05,5.16-4.65,3.35-3.23,6.59-6.59,9.78-10,6.44-6.74,12.66-13.72,18.89-20.67l18.62-21c-2.85,3.7-5.81,7.31-8.75,11s-6,7.19-9,10.76Q148.62,281.1,139,291.36c-3.24,3.39-6.52,6.73-9.93,9.95-1.71,1.6-3.44,3.19-5.28,4.68a40.17,40.17,0,0,1-5.89,4,37.3,37.3,0,0,1-13.38,4.49,33.92,33.92,0,0,1-7,.13A25.45,25.45,0,0,1,90.65,313.11Z" style="fill: rgb(38, 50, 56); transform-origin: 133.055px 281.706px;" id="elip7w85r0d4" class="animable"></path><path d="M168.31,257.21a44,44,0,0,1,3.83-2.8l3.93-2.63a13.24,13.24,0,0,1-3.51,3.25A18.76,18.76,0,0,1,168.31,257.21Z" style="fill: rgb(38, 50, 56); transform-origin: 172.19px 254.495px;" id="elnoajmho9sk" class="animable"></path><path d="M187.4,240.87h8.72a110.89,110.89,0,0,0-5.28-37l-5.64,1.43S190.75,228.42,187.4,240.87Z" style="fill: rgb(55, 71, 79); transform-origin: 190.681px 222.37px;" id="el56yv3q8g6sv" class="animable"></path><path d="M222.82,207.33s11.76,16.94,21.66,33.54h-5.54L216.75,205Z" style="fill: rgb(55, 71, 79); transform-origin: 230.615px 222.935px;" id="el5sneiopntg9" class="animable"></path><path d="M194,210.4c.69,2.42,11.72,16.65,22.92,15.58,3.65-.35,4.07-19.19,4.07-19.19l.26-1.5,3.63-20.91L199.83,170l-3.61-1.9s-.61,5.79-1.31,13c0,.33-.06.67-.09,1s-.11.79-.14,1.17c-.11,1.07-.23,2.17-.32,3.27-.07.84-.15,1.65-.19,2.53s-.12,1.73-.19,2.62C193.5,200.39,193.73,209.36,194,210.4Z" style="fill: rgb(211, 118, 106); transform-origin: 209.291px 197.069px;" id="elz7k8mi9uog" class="animable"></path><path d="M194.91,181.07a42.58,42.58,0,0,0,26.35,24.22l3.63-20.91L199.83,170l-3.61-1.9S195.61,173.86,194.91,181.07Z" style="fill: rgb(38, 50, 56); transform-origin: 209.9px 186.695px;" id="ell7zezopfscm" class="animable"></path><path d="M202.47,166.08c-6.67-4.47-25.41-11.05-35.31,3.51-14.14,20.77,16.48,57.2,18.05,76.35,2.85,34.69,20.87,54.17,36.86,44.48C240,279.56,238.88,250,205.24,216.67c-21-20.85-24.24-36.08-19.4-39.58s12.37-.41,12.37-.41Z" style="fill: rgb(38, 50, 56); transform-origin: 198.515px 226.778px;" id="ela95pu6ithbj" class="animable"></path><path d="M199.82,164.54a47.65,47.65,0,0,0-10.82-4,28.34,28.34,0,0,0-11.68-.42,19.24,19.24,0,0,0-10.44,5.59,25,25,0,0,0-6,10.27,28,28,0,0,0-.55,11.82A51.25,51.25,0,0,0,163.61,199a103,103,0,0,0,11.53,20,153.29,153.29,0,0,1-10-20.57,55.05,55.05,0,0,1-2.79-10.9,26.32,26.32,0,0,1,.61-10.94,23.07,23.07,0,0,1,5.37-9.45,17.94,17.94,0,0,1,9.3-5.35,28.72,28.72,0,0,1,11.13-.19,46.36,46.36,0,0,1,5.57,1.18Q197.11,163.55,199.82,164.54Z" style="fill: rgb(38, 50, 56); transform-origin: 179.882px 189.352px;" id="el7lgjpdoo8l4" class="animable"></path><path d="M193.93,204.9c3.1,3.54,6.58,6.72,9.93,10s6.76,6.5,10,9.84,6.44,6.78,9.33,10.41a70.27,70.27,0,0,1,7.72,11.5,36.36,36.36,0,0,1,4.25,12.92,39.32,39.32,0,0,1-1.14,13.6,29.31,29.31,0,0,1-6.37,12.05,26.69,26.69,0,0,1-5.2,4.57,25.13,25.13,0,0,1-3,1.72,12.12,12.12,0,0,1-3.3,1.16,17.32,17.32,0,0,0,6.63-2.4,27.27,27.27,0,0,0,5.67-4.32,28.86,28.86,0,0,0,4.37-5.7,31.53,31.53,0,0,0,2.86-6.61,37,37,0,0,0,1.42-7l.16-1.8.07-1.79a26.08,26.08,0,0,0-.1-3.64,37.78,37.78,0,0,0-4.37-13.72c-4.55-8.47-11-15.58-17.78-22.1-3.4-3.27-6.94-6.37-10.51-9.42S197.38,208.09,193.93,204.9Z" style="fill: rgb(38, 50, 56); transform-origin: 215.642px 248.785px;" id="elik2kc4168y" class="animable"></path><path d="M203.57,165.19c-1.33-1.76-4.35-3-5.71-2.38s-6.73,10.78-5.73,13.46,6.16,1.59,6.16,1.59Z" style="fill: rgb(255, 199, 39); transform-origin: 197.788px 170.364px;" id="eletjj9lqbv2" class="animable"></path><path d="M252.26,147.48c7.85,36.41-13.06,45.22-20.92,46.91-7.13,1.52-31.59,5.83-43.16-29.57s2.87-50.56,19-54.92S244.41,111.07,252.26,147.48Z" style="fill: rgb(211, 118, 106); transform-origin: 218.996px 152.012px;" id="elbn18ux0kfr6" class="animable"></path><path d="M240.34,142.11a24.27,24.27,0,0,1-2.56-.17,4.11,4.11,0,0,1-2.59-.67,1.33,1.33,0,0,1-.23-1.6,3.3,3.3,0,0,1,3.1-1.22,4.84,4.84,0,0,1,3.24,1.26A1.41,1.41,0,0,1,240.34,142.11Z" style="fill: rgb(38, 50, 56); transform-origin: 238.249px 140.26px;" id="elmrq6c79gsq" class="animable"></path><path d="M214.82,151.57a23.32,23.32,0,0,0,2.42-.88,4.17,4.17,0,0,0,2.29-1.37,1.32,1.32,0,0,0-.23-1.6,3.27,3.27,0,0,0-3.31-.3,4.77,4.77,0,0,0-2.76,2.12A1.41,1.41,0,0,0,214.82,151.57Z" style="fill: rgb(38, 50, 56); transform-origin: 216.383px 149.359px;" id="elcvttq13aly" class="animable"></path><path d="M221.07,156.11c0-.09-.18.15-.16.25.5,2.49.65,5.43-1.47,6.63-.07,0,0,.17,0,.14C222.18,162.28,221.94,158.39,221.07,156.11Z" style="fill: rgb(38, 50, 56); transform-origin: 220.535px 159.612px;" id="elgfgbutatvma" class="animable"></path><path d="M218.4,153.87c-4.07.37-3,8.49.74,8.15S221.81,153.57,218.4,153.87Z" style="fill: rgb(38, 50, 56); transform-origin: 218.648px 157.946px;" id="el8grqi8v50o" class="animable"></path><path d="M216.86,154.51c-.65.55-1.24,1.45-2.09,1.64s-1.83-.53-2.58-1.27c-.08-.07-.14,0-.13.11.18,1.56,1,3.08,2.68,3.1,1.55,0,2.46-1.5,2.65-3.11C217.43,154.68,217.12,154.28,216.86,154.51Z" style="fill: rgb(38, 50, 56); transform-origin: 214.726px 156.266px;" id="elfo3fdusevgm" class="animable"></path><path d="M236.14,152.87c0-.1.21.1.21.21.09,2.53.63,5.42,3,6.1.07,0,.07.15,0,.14C236.5,159.12,235.82,155.28,236.14,152.87Z" style="fill: rgb(38, 50, 56); transform-origin: 237.735px 156.082px;" id="elq0qhfpbxs5" class="animable"></path><path d="M238.22,150.07c4.05-.59,4.93,7.55,1.18,8.09S234.82,150.56,238.22,150.07Z" style="fill: rgb(38, 50, 56); transform-origin: 238.931px 154.113px;" id="elx96fsn9ryja" class="animable"></path><path d="M239.86,150.32c.76.39,1.55,1.12,2.41,1.12s1.66-.95,2.22-1.84c.06-.09.14,0,.15.08.19,1.56-.23,3.22-1.88,3.64-1.5.38-2.75-.89-3.31-2.41C239.35,150.63,239.56,150.17,239.86,150.32Z" style="fill: rgb(38, 50, 56); transform-origin: 242.054px 151.475px;" id="elsp4z352pqb" class="animable"></path><path d="M225.69,175.57c.65.54,1.32,1.31,2.25,1.31a6.71,6.71,0,0,0,2.66-.86c.08,0,.17,0,.12.12a3.41,3.41,0,0,1-3.1,1.64,2.72,2.72,0,0,1-2.17-2.07C225.4,175.56,225.59,175.49,225.69,175.57Z" style="fill: rgb(38, 50, 56); transform-origin: 228.088px 176.661px;" id="elslakxjs228p" class="animable"></path><path d="M234.92,165s1,3.68,1.29,5.45c0,.16-.39.3-1,.42,0,0,0,0-.07,0a8.52,8.52,0,0,1-8.61-2,.18.18,0,0,1,.23-.28,12.85,12.85,0,0,0,8,1.13c.06-.51-2-6.24-1.72-6.3a15.66,15.66,0,0,1,4.15.34c-1.95-7.72-5.12-15.07-6.94-22.79-.06-.28.33-.42.44-.18,3.87,7.47,6.31,16.31,8.52,24.23C239.5,166.05,235.67,165.23,234.92,165Z" style="fill: rgb(38, 50, 56); transform-origin: 232.845px 155.981px;" id="elnjk0tlestrl" class="animable"></path><path d="M186.09,163.89c6.33.49,7.78-12.78,7.78-12.78s12.86,0,17.11-18.46c0,0-.28,8.61-5.7,15.29,0,0,22.68-2.4,32.23-21.38,0,0-3.81,9.67-7.38,13.11,0,0,9.51-2.66,14.15-10.38,0,0,4,11,7,14,0,0-.93-39.68-37.69-35.46,0,0-23,1.53-31.28,19.75S186.09,163.89,186.09,163.89Z" style="fill: rgb(38, 50, 56); transform-origin: 215.343px 135.71px;" id="el0nheeoqv0qk" class="animable"></path><path d="M194.56,166.37s-9.52-10.52-14.39-7,3.31,19.49,9.75,21a6.29,6.29,0,0,0,7.94-4.42Z" style="fill: rgb(211, 118, 106); transform-origin: 188.276px 169.649px;" id="el6uh5ea4170y" class="animable"></path><path d="M182.63,163.91c-.1,0-.1.14,0,.16,4.53,1.2,7.3,4.91,9.41,8.85-1.48-1.43-3.33-2.08-5.28-.29-.1.1,0,.26.15.22a3.88,3.88,0,0,1,4.4.8,18.94,18.94,0,0,1,2.46,3.17c.25.36.92.06.71-.36a1,1,0,0,1,0-.1C193.84,170.86,188.6,163.71,182.63,163.91Z" style="fill: rgb(38, 50, 56); transform-origin: 188.538px 170.443px;" id="el8nx664clrvx" class="animable"></path><path d="M190.84,180.64a2,2,0,1,0,2-2A2,2,0,0,0,190.84,180.64Z" style="fill: rgb(255, 255, 255); transform-origin: 192.84px 180.64px;" id="elgg4mwyo1msv" class="animable"></path><path d="M240.84,113.24c-4.33.34-26.53,8.32-35.18,15.93s-21.81,27.93-22.48,29-17.33-34.38,10.43-50.89C223.84,89.29,240.84,113.24,240.84,113.24Z" style="fill: rgb(255, 199, 39); transform-origin: 209.227px 129.388px;" id="elbtwrdyehv9o" class="animable"></path><path d="M184.41,156.09s11.28-32.58,20.34-42.13,32.6-21,50-19.23c13.59,1.36-10.43,26.11-10.43,26.11s-2.19-4-6.5-4.24c-8.38-.52-21.73,6.34-28.88,11.66C200,135,184.41,156.09,184.41,156.09Z" style="fill: rgb(255, 199, 39); transform-origin: 221.662px 125.319px;" id="elzkzy8u2tpqo" class="animable"></path><g id="elh1clihkpe25"><path d="M184.41,156.09s11.28-32.58,20.34-42.13,32.6-21,50-19.23c13.59,1.36-10.43,26.11-10.43,26.11s-2.19-4-6.5-4.24c-8.38-.52-21.73,6.34-28.88,11.66C200,135,184.41,156.09,184.41,156.09Z" style="opacity: 0.2; transform-origin: 221.662px 125.319px;" class="animable"></path></g><rect x="132.8" y="279.87" width="134.04" height="83.16" style="fill: rgb(255, 199, 39); transform-origin: 199.82px 321.45px;" id="elkx3x957rold" class="animable"></rect><g id="elk1q3udp15fn"><rect x="132.8" y="279.87" width="134.04" height="83.16" style="opacity: 0.2; transform-origin: 199.82px 321.45px;" class="animable"></rect></g><g id="elkqnlbbkgrq"><rect x="132.81" y="279.87" width="50.76" height="83.16" style="opacity: 0.2; transform-origin: 158.19px 321.45px; transform: rotate(180deg);" class="animable"></rect></g><path d="M136.3,357.3q5.64-8.87,11.18-17.8l11-17.88,10.87-18q5.41-9,10.71-18-5.64,8.86-11.17,17.79l-11,17.89-10.87,18Q141.61,348.24,136.3,357.3Z" style="fill: rgb(255, 199, 39); transform-origin: 158.18px 321.46px;" id="elctd7nck7wch" class="animable"></path><path d="M136.3,285.6q5.31,9,10.71,18l10.87,18,11,17.88q5.52,8.94,11.17,17.8-5.3-9.06-10.71-18.05l-10.87-18-11-17.89Q141.95,294.47,136.3,285.6Z" style="fill: rgb(255, 199, 39); transform-origin: 158.175px 321.44px;" id="elnkv7i0eiml" class="animable"></path><rect x="150.38" y="279.87" width="15.42" height="15.42" style="fill: rgb(235, 235, 235); transform-origin: 158.09px 287.58px;" id="elouubh4p1s28" class="animable"></rect><rect x="237.6" y="340.89" width="1.08" height="15.23" style="fill: rgb(38, 50, 56); transform-origin: 238.14px 348.505px;" id="el57wnb3gc9f2" class="animable"></rect><rect x="240.19" y="340.89" width="1.08" height="15.23" style="fill: rgb(38, 50, 56); transform-origin: 240.73px 348.505px;" id="ella9worwz4j8" class="animable"></rect><rect x="242.78" y="340.89" width="1.08" height="15.23" style="fill: rgb(38, 50, 56); transform-origin: 243.32px 348.505px;" id="elmb6q2qiagqc" class="animable"></rect><rect x="245.37" y="340.89" width="1.08" height="15.23" style="fill: rgb(38, 50, 56); transform-origin: 245.91px 348.505px;" id="eljkf2yyzh6d" class="animable"></rect><rect x="247.96" y="340.89" width="1.08" height="15.23" style="fill: rgb(38, 50, 56); transform-origin: 248.5px 348.505px;" id="elo0m6dsp8nam" class="animable"></rect><rect x="250.55" y="340.89" width="1.08" height="15.23" style="fill: rgb(38, 50, 56); transform-origin: 251.09px 348.505px;" id="el538uuz8elck" class="animable"></rect><rect x="253.14" y="340.89" width="1.08" height="15.23" style="fill: rgb(38, 50, 56); transform-origin: 253.68px 348.505px;" id="eldjqaikenjme" class="animable"></rect><rect x="255.73" y="340.89" width="1.08" height="15.23" style="fill: rgb(38, 50, 56); transform-origin: 256.27px 348.505px;" id="elg0ohzpun8yh" class="animable"></rect><rect x="258.33" y="340.89" width="1.08" height="15.23" style="fill: rgb(38, 50, 56); transform-origin: 258.87px 348.505px;" id="el9010pe0uh7r" class="animable"></rect><path d="M227,355l4.15,1.15H221.4l4.16-1.17v-5.59c-3-.39-4.16-3.33-4.16-8.46h9.75c0,5.12-1.18,8.07-4.15,8.46Z" style="fill: rgb(38, 50, 56); transform-origin: 226.275px 348.54px;" id="elfkg1akedwnb" class="animable"></path><polygon points="219.13 348.66 216.58 348.66 216.58 356.11 210.06 356.11 210.06 348.66 207.51 348.66 213.32 340.89 219.13 348.66" style="fill: rgb(38, 50, 56); transform-origin: 213.32px 348.5px;" id="elhcbj1xo8xuv" class="animable"></polygon><g id="elrocn5p3e3k"><polygon points="266.84 363.03 266.84 355.74 183.57 342.24 183.57 363.02 266.84 363.03" style="opacity: 0.1; transform-origin: 225.205px 352.635px;" class="animable"></polygon></g><rect x="146.07" y="277.19" width="113.34" height="2.68" style="fill: rgb(235, 235, 235); transform-origin: 202.74px 278.53px;" id="elejh0y0gaht" class="animable"></rect><rect x="143.13" y="274.52" width="113.34" height="2.68" style="fill: rgb(199, 199, 199); transform-origin: 199.8px 275.86px;" id="elajq6ftyy3h7" class="animable"></rect><g id="elppcx56xc2f8"><rect x="183.77" y="305.82" width="82.87" height="52.55" style="fill: rgb(255, 255, 255); transform-origin: 225.205px 332.095px; transform: rotate(-9.74364deg);" class="animable"></rect></g><path d="M261.72,299.32c-2.77,3.71-5.63,7.3-8.43,11s-5.7,7.21-8.57,10.78c-3,3.73-6,7.43-9,11.12l-.27.35c-2.67,3.25-5.36,6.5-8,9.75l-.4.46-.52-.31q-5.4-3.29-10.78-6.6l-.38-.23c-4.06-2.5-8.12-5-12.17-7.58-3.87-2.42-7.74-4.9-11.6-7.37s-7.72-5-11.55-7.61c4,2.11,7.89,4.37,11.83,6.56s7.87,4.49,11.79,6.78q6.54,3.8,13.09,7.73h0q4.91,2.92,9.8,5.86c2.44-2.91,4.89-5.85,7.35-8.73,0,0,0,0,0,0,3.27-3.88,6.54-7.75,9.85-11.58q4.44-5.14,8.92-10.24C255.69,306,258.66,302.61,261.72,299.32Z" style="fill: rgb(219, 219, 219); transform-origin: 220.885px 321.05px;" id="elidwtu26461i" class="animable"></path><path d="M217,335.27l-.08.1c-.37.44-.73.88-1.1,1.31-1.76,2.08-3.58,4.09-5.45,6.05-2.27,2.43-4.61,4.78-7,7.12s-4.77,4.59-7.23,6.82-5,4.43-7.58,6.5c2.11-2.59,4.35-5.05,6.62-7.46s4.62-4.77,7-7.11,4.78-4.61,7.24-6.85c2-1.77,4-3.54,6-5.22.48-.4.95-.78,1.44-1.16Z" style="fill: rgb(219, 219, 219); transform-origin: 202.78px 349.22px;" id="elvvxojczxq6p" class="animable"></path><path d="M269.94,349.52c-3.15-1.1-6.24-2.36-9.28-3.67s-6.07-2.69-9.08-4.09-6-2.89-8.91-4.45c-2.39-1.25-4.77-2.54-7.1-3.93l-1.48-.88a.75.75,0,0,0-.12-.07l.14,0c.59.21,1.17.42,1.74.64,2.51.92,5,1.93,7.41,3,3.05,1.3,6.06,2.69,9.06,4.11s6,2.89,8.92,4.44S267.1,347.76,269.94,349.52Z" style="fill: rgb(219, 219, 219); transform-origin: 251.955px 340.975px;" id="el49pgryzrwpu" class="animable"></path><g id="el0khjxw74j41"><rect x="215.78" y="300.8" width="52.55" height="82.87" style="fill: rgb(235, 235, 235); transform-origin: 242.055px 342.235px; transform: rotate(-88.16deg);" class="animable"></rect></g><path d="M284.31,317.3c-3.45,3.1-6.95,6.05-10.43,9.09s-7,5.94-10.52,8.88q-5.5,4.61-11,9.12l-.34.29-9.8,8-.49.38-.45-.41q-4.63-4.29-9.26-8.6a3,3,0,0,1-.32-.3q-5.25-4.86-10.45-9.82c-3.31-3.14-6.62-6.33-9.91-9.52s-6.58-6.43-9.82-9.74c3.46,2.86,6.87,5.85,10.3,8.77s6.83,5.95,10.22,9c3.77,3.34,7.55,6.74,11.31,10.16,0,0,0,0,0,0l8.45,7.67c3-2.37,5.95-4.77,8.92-7.11,0,0,0,0,0,0q6-4.74,11.94-9.41,5.37-4.17,10.77-8.28C277.08,322.7,280.67,319.93,284.31,317.3Z" style="fill: rgb(199, 199, 199); transform-origin: 242.915px 333.865px;" id="el2e6yeeaml7g" class="animable"></path><path d="M233.41,343.74a.43.43,0,0,0-.1.09L232,344.89c-2.14,1.69-4.32,3.3-6.54,4.86-2.7,1.93-5.46,3.77-8.23,5.6s-5.58,3.57-8.44,5.27-5.73,3.36-8.71,4.87c2.58-2.12,5.26-4.09,8-6s5.48-3.78,8.24-5.6,5.59-3.59,8.45-5.29c2.27-1.36,4.58-2.69,6.94-3.93.54-.3,1.09-.58,1.64-.86Z" style="fill: rgb(199, 199, 199); transform-origin: 216.745px 354.615px;" id="elup4sd6mbu2" class="animable"></path><path d="M282.48,368.14c-2.87-1.7-5.65-3.54-8.38-5.42s-5.42-3.84-8.09-5.8-5.29-4-7.86-6.12c-2.1-1.7-4.18-3.44-6.18-5.26-.44-.38-.86-.77-1.29-1.16l-.09-.09a.29.29,0,0,0,.12.07l1.59,1c2.27,1.39,4.47,2.87,6.67,4.37,2.74,1.89,5.41,3.84,8.08,5.82s5.28,4,7.86,6.11S280,365.86,282.48,368.14Z" style="fill: rgb(199, 199, 199); transform-origin: 266.535px 356.215px;" id="els3c2b1ygan" class="animable"></path><path d="M196.18,333.44c-11.4-10.13-76.91-46.76-90.18-51.34s-32,1.44-26,21.39,73.29,78.86,98.69,83C187.62,388,200.31,337.1,196.18,333.44Z" style="fill: rgb(211, 118, 106); transform-origin: 137.915px 333.585px;" id="el054tiyjpxe1n" class="animable"></path><path d="M215.49,351.16c-2.61-2-1.57-3.4,4.3-3.45s29.11,4.72,30.09-3.53S218,329.67,208.2,330.5,183,336.1,183,336.1C189.12,338.6,203.48,346.1,215.49,351.16Z" style="fill: rgb(211, 118, 106); transform-origin: 216.451px 340.793px;" id="elejn2y3whn1i" class="animable"></path><path d="M169.62,383.19c17.6,6.41,39.12,15.47,59.91,11.63a10.41,10.41,0,0,0,6-3.23c9.35-1.55,11.42-6.43,11.42-6.43,8.27-4.12,9.7-9.4,9.7-9.4s11-1.94,10.88-8.76c-.06-7.64-15.44-3.42-25.31-6.26-22.63-6.52-53-22.11-59.3-24.64Z" style="fill: rgb(211, 118, 106); transform-origin: 218.575px 365.919px;" id="elmwa613ucdp" class="animable"></path><path d="M213.75,370.57c6.7,1.79,13.23,3.72,20.13,4.58,7.58,1,15,.61,22.62.44a.18.18,0,0,1,0,.36c-13.69,2.48-30.06.3-42.87-5.08C213.35,370.74,213.41,370.48,213.75,370.57Z" style="fill: rgb(38, 50, 56); transform-origin: 235.065px 373.76px;" id="el1w238m37hdp" class="animable"></path><path d="M207.83,383.66c6.61,1.37,18.25,3.71,39.14,1.27.07,0,.1.11,0,.13A71.84,71.84,0,0,1,207.77,384C207.36,383.85,207.39,383.56,207.83,383.66Z" style="fill: rgb(38, 50, 56); transform-origin: 227.257px 385.461px;" id="elvshy08jr847" class="animable"></path><path d="M204.78,390.75c11.33,1.91,18.72,1.68,30.74.8.07,0,.1.11,0,.12-13.55,2.44-18.75,1.78-30.88-.54C204.24,391.05,204.34,390.67,204.78,390.75Z" style="fill: rgb(38, 50, 56); transform-origin: 219.986px 391.976px;" id="elizj7me9v8mr" class="animable"></path><path d="M199.6,330.44,167.77,393s-55.7-32.37-85.56-83.49c-9.95-17,.05-39.88,30.22-27.66S199.6,330.44,199.6,330.44Z" style="fill: rgb(255, 199, 39); transform-origin: 139.046px 335.701px;" id="elgg9ky2d1grq" class="animable"></path><path d="M186.76,325.88c-5,9.15-24.29,47.31-27.89,55.84-.25.59.06.9.4.31,15.76-27,23.36-46.72,27.84-55.94C187.23,325.86,186.89,325.65,186.76,325.88Z" style="fill: rgb(38, 50, 56); transform-origin: 172.957px 354.064px;" id="elw4gznziqove" class="animable"></path></g><g id="freepik--speech-bubble--inject-31" class="animable animator-active" style="transform-origin: 302.325px 104.28px;"><path d="M340.08,107.88a34.32,34.32,0,0,1-57.35,21.72l-17.18,2.52,8.59-14.85a34.33,34.33,0,1,1,65.94-9.39Z" style="fill: rgb(255, 255, 255); transform-origin: 302.907px 104.318px;" id="elydsqsx3r81t" class="animable"></path><path d="M340.08,107.88a34.52,34.52,0,0,1-6.93,17.41,39.09,39.09,0,0,1-3.11,3.58,37.87,37.87,0,0,1-3.62,3.07,33.92,33.92,0,0,1-8.28,4.61,34.6,34.6,0,0,1-9.24,2.2,33,33,0,0,1-4.77.09,29,29,0,0,1-4.75-.49,34.62,34.62,0,0,1-17-8.39l.41.13-17.16,2.63-1.25.19.63-1.1,8.55-14.87,0,.58a34.7,34.7,0,0,1,2.11-30.59,35.14,35.14,0,0,1,10.75-11.45,34.89,34.89,0,0,1,30.18-4.06,35.16,35.16,0,0,1,13.24,8.11A34.52,34.52,0,0,1,340.08,107.88Zm0,0a34,34,0,0,0-38.93-37.15A33.84,33.84,0,0,0,287,76.33,35.41,35.41,0,0,0,276.7,87.54a33.88,33.88,0,0,0-4.36,14.52,34.29,34.29,0,0,0,2.42,15l.13.3-.17.29-8.64,14.81-.62-.9,17.19-2.41.24,0,.17.16a33.77,33.77,0,0,0,16.44,8.46,29.09,29.09,0,0,0,4.66.57,32.88,32.88,0,0,0,13.86-2,31.86,31.86,0,0,0,8.28-4.46,37.35,37.35,0,0,0,3.63-3,38.72,38.72,0,0,0,3.12-3.54A34.51,34.51,0,0,0,340.08,107.88Z" style="fill: rgb(38, 50, 56); transform-origin: 302.325px 104.28px;" id="el50oly7pkrtc" class="animable"></path><polygon points="301.92 123.89 287.26 109.05 292.18 104.18 300.75 112.85 318.54 84.95 324.38 88.68 301.92 123.89" style="fill: rgb(255, 199, 39); transform-origin: 305.82px 104.42px;" id="el3h69qdox1gn" class="animable"></polygon></g><g id="freepik--Boxes--inject-31" class="animable" style="transform-origin: 368.445px 366.355px;"><rect x="294.53" y="329.27" width="147.83" height="114.57" style="fill: rgb(255, 199, 39); transform-origin: 368.445px 386.555px;" id="elx5rsxmhdzka" class="animable"></rect><g id="elkzmc6wlf5k"><rect x="294.53" y="329.27" width="147.83" height="114.57" style="opacity: 0.2; transform-origin: 368.445px 386.555px;" class="animable"></rect></g><g id="elqrk9f1gzw8"><rect x="294.53" y="329.27" width="55.99" height="114.57" style="opacity: 0.2; transform-origin: 322.525px 386.555px; transform: rotate(180deg);" class="animable"></rect></g><path d="M298.39,436q6.23-12.22,12.33-24.52l12.14-24.64,12-24.75q6-12.39,11.81-24.88-6.21,12.22-12.32,24.52l-12.15,24.65-12,24.75Q304.23,423.47,298.39,436Z" style="fill: rgb(255, 199, 39); transform-origin: 322.53px 386.605px;" id="elix4ejuqt6qo" class="animable"></path><path d="M298.39,337.16q5.85,12.48,11.81,24.88l12,24.75,12.15,24.64q6.09,12.3,12.32,24.52-5.84-12.48-11.81-24.87l-12-24.75-12.14-24.65Q304.61,349.38,298.39,337.16Z" style="fill: rgb(255, 199, 39); transform-origin: 322.53px 386.555px;" id="el5cv6qpwoqfp" class="animable"></path><rect x="313.91" y="329.27" width="17" height="13.98" style="fill: rgb(235, 235, 235); transform-origin: 322.41px 336.26px;" id="elzohunnb77jg" class="animable"></rect><rect x="410.11" y="419.42" width="1.19" height="16.8" style="fill: rgb(38, 50, 56); transform-origin: 410.705px 427.82px;" id="elwhidr5hqnui" class="animable"></rect><rect x="412.96" y="419.42" width="1.19" height="16.8" style="fill: rgb(38, 50, 56); transform-origin: 413.555px 427.82px;" id="elffs63gv9yq" class="animable"></rect><rect x="415.82" y="419.42" width="1.19" height="16.8" style="fill: rgb(38, 50, 56); transform-origin: 416.415px 427.82px;" id="elgixvub6iigr" class="animable"></rect><rect x="418.68" y="419.42" width="1.19" height="16.8" style="fill: rgb(38, 50, 56); transform-origin: 419.275px 427.82px;" id="ellyghxso47l" class="animable"></rect><rect x="421.54" y="419.42" width="1.19" height="16.8" style="fill: rgb(38, 50, 56); transform-origin: 422.135px 427.82px;" id="elqyxswzwon4f" class="animable"></rect><rect x="424.4" y="419.42" width="1.19" height="16.8" style="fill: rgb(38, 50, 56); transform-origin: 424.995px 427.82px;" id="el7r6xbib4nk8" class="animable"></rect><rect x="427.25" y="419.42" width="1.19" height="16.8" style="fill: rgb(38, 50, 56); transform-origin: 427.845px 427.82px;" id="ellx58j4gzhr" class="animable"></rect><rect x="430.11" y="419.42" width="1.19" height="16.8" style="fill: rgb(38, 50, 56); transform-origin: 430.705px 427.82px;" id="elg2bxjctxnvf" class="animable"></rect><rect x="432.97" y="419.42" width="1.19" height="16.8" style="fill: rgb(38, 50, 56); transform-origin: 433.565px 427.82px;" id="elzkt6tb0c64a" class="animable"></rect><path d="M398.42,434.94l4.58,1.27H392.25l4.58-1.28v-6.18c-3.28-.43-4.58-3.66-4.58-9.32H403c0,5.64-1.3,8.89-4.58,9.32Z" style="fill: rgb(38, 50, 56); transform-origin: 397.625px 427.82px;" id="el5vrwos5utr" class="animable"></path><polygon points="389.74 427.99 386.93 427.99 386.93 436.21 379.74 436.21 379.74 427.99 376.92 427.99 383.34 419.43 389.74 427.99" style="fill: rgb(38, 50, 56); transform-origin: 383.33px 427.82px;" id="elc2acplpaak6" class="animable"></polygon><g id="ela4vslmltlqq"><polygon points="442.36 443.84 442.36 435.8 350.52 420.91 350.52 443.84 442.36 443.84" style="opacity: 0.1; transform-origin: 396.44px 432.375px;" class="animable"></polygon></g><rect x="322.82" y="288.87" width="114.21" height="40.4" style="fill: rgb(255, 199, 39); transform-origin: 379.925px 309.07px;" id="elfiozckcqvk9" class="animable"></rect><g id="elxm9dtva1vrb"><rect x="322.82" y="288.87" width="114.21" height="40.4" style="opacity: 0.2; transform-origin: 379.925px 309.07px;" class="animable"></rect></g><g id="ele6xoenswv7g"><rect x="322.82" y="288.87" width="34.9" height="40.4" style="opacity: 0.2; transform-origin: 340.27px 309.07px; transform: rotate(180deg);" class="animable"></rect></g><path d="M325.23,326.49c2.58-2.88,5.15-5.76,7.68-8.65l7.57-8.69,7.48-8.73q3.72-4.37,7.36-8.77-3.88,4.31-7.68,8.65L340.06,309l-7.47,8.73Q328.87,322.08,325.23,326.49Z" style="fill: rgb(255, 199, 39); transform-origin: 340.275px 309.07px;" id="ell1imtg9ydb" class="animable"></path><path d="M325.23,291.65q3.64,4.39,7.36,8.77l7.47,8.73,7.58,8.69q3.8,4.34,7.68,8.65-3.65-4.41-7.36-8.77L340.48,309l-7.57-8.69C330.38,297.4,327.81,294.52,325.23,291.65Z" style="fill: rgb(255, 199, 39); transform-origin: 340.275px 309.07px;" id="elz49j7vkbois" class="animable"></path><rect x="334.9" y="288.87" width="10.6" height="9.46" style="fill: rgb(235, 235, 235); transform-origin: 340.2px 293.6px;" id="ela544bqvx7dp" class="animable"></rect><rect x="416.93" y="314.05" width="0.74" height="10.47" style="fill: rgb(38, 50, 56); transform-origin: 417.3px 319.285px;" id="elbuh5kllgrs" class="animable"></rect><rect x="418.71" y="314.05" width="0.74" height="10.47" style="fill: rgb(38, 50, 56); transform-origin: 419.08px 319.285px;" id="eldsx5nu0s495" class="animable"></rect><rect x="420.49" y="314.05" width="0.74" height="10.47" style="fill: rgb(38, 50, 56); transform-origin: 420.86px 319.285px;" id="eloqcn66na5kh" class="animable"></rect><rect x="422.27" y="314.05" width="0.74" height="10.47" style="fill: rgb(38, 50, 56); transform-origin: 422.64px 319.285px;" id="ellfl3wzvq9r" class="animable"></rect><rect x="424.05" y="314.05" width="0.74" height="10.47" style="fill: rgb(38, 50, 56); transform-origin: 424.42px 319.285px;" id="elvsb2mtiiz2r" class="animable"></rect><rect x="425.83" y="314.05" width="0.74" height="10.47" style="fill: rgb(38, 50, 56); transform-origin: 426.2px 319.285px;" id="elwvpbkgemfr" class="animable"></rect><rect x="427.62" y="314.05" width="0.74" height="10.47" style="fill: rgb(38, 50, 56); transform-origin: 427.99px 319.285px;" id="elsrmgk19l95" class="animable"></rect><rect x="429.4" y="314.05" width="0.74" height="10.47" style="fill: rgb(38, 50, 56); transform-origin: 429.77px 319.285px;" id="elnaj8ereuk1" class="animable"></rect><rect x="431.18" y="314.05" width="0.74" height="10.47" style="fill: rgb(38, 50, 56); transform-origin: 431.55px 319.285px;" id="elszfuygnp1o" class="animable"></rect><path d="M409.64,323.72l2.86.8h-6.71l2.86-.81v-3.85c-2-.26-2.86-2.28-2.86-5.81h6.71c0,3.52-.81,5.55-2.86,5.81Z" style="fill: rgb(38, 50, 56); transform-origin: 409.145px 319.285px;" id="elf99c9ve2o6l" class="animable"></path><polygon points="404.23 319.39 402.48 319.39 402.48 324.52 398 324.52 398 319.39 396.24 319.39 400.24 314.05 404.23 319.39" style="fill: rgb(38, 50, 56); transform-origin: 400.235px 319.285px;" id="elvx82pdjf29" class="animable"></polygon><g id="el5kc3ywb5hhv"><polygon points="437.03 329.27 437.03 324.26 357.72 314.98 357.72 329.27 437.03 329.27" style="opacity: 0.1; transform-origin: 397.375px 322.125px;" class="animable"></polygon></g></g><defs>     <filter id="active" height="200%">         <feMorphology in="SourceAlpha" result="DILATED" operator="dilate" radius="2"></feMorphology>                <feFlood flood-color="#32DFEC" flood-opacity="1" result="PINK"></feFlood>        <feComposite in="PINK" in2="DILATED" operator="in" result="OUTLINE"></feComposite>        <feMerge>            <feMergeNode in="OUTLINE"></feMergeNode>            <feMergeNode in="SourceGraphic"></feMergeNode>        </feMerge>    </filter>    <filter id="hover" height="200%">        <feMorphology in="SourceAlpha" result="DILATED" operator="dilate" radius="2"></feMorphology>                <feFlood flood-color="#ff0000" flood-opacity="0.5" result="PINK"></feFlood>        <feComposite in="PINK" in2="DILATED" operator="in" result="OUTLINE"></feComposite>        <feMerge>            <feMergeNode in="OUTLINE"></feMergeNode>            <feMergeNode in="SourceGraphic"></feMergeNode>        </feMerge>            <feColorMatrix type="matrix" values="0   0   0   0   0                0   1   0   0   0                0   0   0   0   0                0   0   0   1   0 "></feColorMatrix>    </filter></defs></svg>