<svg class="animated" id="freepik_stories-afterwork" xmlns="http://www.w3.org/2000/svg" viewBox="0 0 500 500" version="1.1" xmlns:xlink="http://www.w3.org/1999/xlink" xmlns:svgjs="http://svgjs.com/svgjs"><style>svg#freepik_stories-afterwork:not(.animated) .animable {opacity: 0;}svg#freepik_stories-afterwork.animated #freepik--speech-bubble-2--inject-2 {animation: 0.9s 1 forwards cubic-bezier(.36,-0.01,.5,1.38) fadeIn,1.5s Infinite  linear heartbeat;animation-delay: 0s,0.9s;}svg#freepik_stories-afterwork.animated #freepik--speech-bubble-1--inject-2 {animation: 1s 1 forwards cubic-bezier(.36,-0.01,.5,1.38) fadeIn,6s Infinite  linear heartbeat;animation-delay: 0s,-3s;}svg#freepik_stories-afterwork.animated #freepik--character-3--inject-2 {animation: 1s 1 forwards cubic-bezier(.36,-0.01,.5,1.38) fadeIn;animation-delay: 0s;}svg#freepik_stories-afterwork.animated #freepik--character-2--inject-2 {animation: 1s 1 forwards cubic-bezier(.36,-0.01,.5,1.38) fadeIn;animation-delay: 0s;}svg#freepik_stories-afterwork.animated #freepik--character-1--inject-2 {animation: 1s 1 forwards cubic-bezier(.36,-0.01,.5,1.38) fadeIn;animation-delay: 0s;}            @keyframes fadeIn {                0% {                    opacity: 0;                }                100% {                    opacity: 1;                }            }                    @keyframes heartbeat {                0% {                    transform: scale(1);                }                10% {                    transform: scale(1.1);                }                30% {                    transform: scale(1);                }                40% {                    transform: scale(1);                }                50% {                    transform: scale(1.1);                }                60% {                    transform: scale(1);                }                100% {                    transform: scale(1);                }            }        .animator-hidden { display: none; }</style><g id="freepik--background-complete--inject-2" class="animable animator-hidden" style="transform-origin: 250px 226.285px;"><path d="M443.92,330.2H263.17a5.87,5.87,0,0,1-5.86-5.86V61.06a5.87,5.87,0,0,1,5.86-5.86H443.92a5.87,5.87,0,0,1,5.86,5.86V324.34A5.87,5.87,0,0,1,443.92,330.2ZM263.17,55.45a5.62,5.62,0,0,0-5.61,5.61V324.34a5.62,5.62,0,0,0,5.61,5.61H443.92a5.61,5.61,0,0,0,5.61-5.61V61.06a5.61,5.61,0,0,0-5.61-5.61Z" style="fill: rgb(224, 224, 224); transform-origin: 353.545px 192.7px;" id="elv7mju2buik" class="animable"></path><path d="M235.49,330.2H54.75a5.87,5.87,0,0,1-5.87-5.86V61.06a5.87,5.87,0,0,1,5.87-5.86H235.49a5.86,5.86,0,0,1,5.86,5.86V324.34A5.86,5.86,0,0,1,235.49,330.2ZM54.75,55.45a5.62,5.62,0,0,0-5.62,5.61V324.34A5.62,5.62,0,0,0,54.75,330H235.49a5.61,5.61,0,0,0,5.61-5.61V61.06a5.61,5.61,0,0,0-5.61-5.61Z" style="fill: rgb(224, 224, 224); transform-origin: 145.115px 192.7px;" id="elcxlhr4ymgwf" class="animable"></path><rect y="391.27" width="500" height="0.25" style="fill: rgb(224, 224, 224); transform-origin: 250px 391.395px;" id="elxw3jjmyt1tm" class="animable"></rect><rect x="51.67" y="405.53" width="16.06" height="0.25" style="fill: rgb(224, 224, 224); transform-origin: 59.7px 405.655px;" id="elwmt6wn51mad" class="animable"></rect><rect x="170.35" y="402.82" width="53.53" height="0.25" style="fill: rgb(224, 224, 224); transform-origin: 197.115px 402.945px;" id="elpm44f1i5dd" class="animable"></rect><rect x="68.73" y="414.82" width="36.25" height="0.25" style="fill: rgb(224, 224, 224); transform-origin: 86.855px 414.945px;" id="elmr1275bhaug" class="animable"></rect><rect x="378.35" y="402.69" width="43.19" height="0.25" style="fill: rgb(224, 224, 224); transform-origin: 399.945px 402.815px;" id="elmcw0mx7w3xk" class="animable"></rect><rect x="430.45" y="402.69" width="6.33" height="0.25" style="fill: rgb(224, 224, 224); transform-origin: 433.615px 402.815px;" id="el561bk1ee753" class="animable"></rect><rect x="316.21" y="408.92" width="53.89" height="0.25" style="fill: rgb(224, 224, 224); transform-origin: 343.155px 409.045px;" id="elbm2zazsvoc4" class="animable"></rect><rect x="82.17" y="68.64" width="50.06" height="94.38" style="fill: rgb(230, 230, 230); transform-origin: 107.2px 115.83px;" id="elo4ifwh97l8" class="animable"></rect><rect x="70.97" y="68.64" width="58.81" height="94.38" style="fill: rgb(240, 240, 240); transform-origin: 100.375px 115.83px;" id="el38xowx4udlp" class="animable"></rect><rect x="79.91" y="77.02" width="40.9" height="77.61" style="fill: rgb(255, 255, 255); transform-origin: 100.36px 115.825px;" id="ellmgrc1augec" class="animable"></rect><rect x="351.47" y="64.07" width="75.97" height="143.22" style="fill: rgb(230, 230, 230); transform-origin: 389.455px 135.68px;" id="ele5et053mic" class="animable"></rect><rect x="334.47" y="64.07" width="89.24" height="143.22" style="fill: rgb(240, 240, 240); transform-origin: 379.09px 135.68px;" id="el6lxnrf5nn2p" class="animable"></rect><rect x="348.04" y="76.79" width="62.07" height="117.78" style="fill: rgb(255, 255, 255); transform-origin: 379.075px 135.68px;" id="eluwjh59xy2pn" class="animable"></rect><polygon points="62.72 391.39 92.34 391.39 98.15 327.44 56.91 327.44 62.72 391.39" style="fill: rgb(224, 224, 224); transform-origin: 77.53px 359.415px;" id="elsfw73s6h10o" class="animable"></polygon><path d="M77.09,338.08c.82-26.68-5.73-81.74-16.38-103.14l.73-.36c11.07,22.28,17.25,77.06,16.5,103.52Z" style="fill: rgb(224, 224, 224); transform-origin: 69.3556px 286.34px;" id="el34jbaxrfieo" class="animable"></path><path d="M86.56,252.53C76.55,260.39,73.84,286,73.84,286,80.94,274.28,91.93,268.71,86.56,252.53Z" style="fill: rgb(224, 224, 224); transform-origin: 80.9144px 269.265px;" id="elxndc4ugp9w" class="animable"></path><path d="M73.72,286.4a.39.39,0,0,1-.27-.42c.11-1.06,2.83-25.88,12.87-33.76a.38.38,0,0,1,.37-.07.44.44,0,0,1,.27.26c4,12.14-1,18.39-6.77,25.6a75.34,75.34,0,0,0-6,8.21.4.4,0,0,1-.35.2Zm.77-2.17c1.61-2.45,3.36-4.62,5.05-6.73,5.56-6.93,10.37-12.92,6.82-24.27C78.47,260,75.28,278.36,74.49,284.23Z" style="fill: rgb(224, 224, 224); transform-origin: 80.9241px 269.275px;" id="eld9nm4tihdl5" class="animable"></path><path d="M49.39,248.45C61.38,252.62,72,276.3,72,276.3,61.52,267.5,49.55,265.46,49.39,248.45Z" style="fill: rgb(224, 224, 224); transform-origin: 60.695px 262.375px;" id="eljwczz0kuv9s" class="animable"></path><path d="M72.07,276.63a81.15,81.15,0,0,0-8-5.74c-7.85-5.11-14.63-9.53-14.74-22.47a.4.4,0,0,1,.17-.33.4.4,0,0,1,.38-.05c12,4.2,22.43,27.12,22.87,28.1a.47.47,0,0,1,0,.17.41.41,0,0,1-.41.4A.51.51,0,0,1,72.07,276.63Zm-7.56-6.42c2.2,1.44,4.47,2.91,6.7,4.65-2.59-5.29-11.39-22-21.08-25.84C50.45,261.05,57,265.3,64.51,270.21Z" style="fill: rgb(224, 224, 224); transform-origin: 61.0439px 262.362px;" id="elprk1wy6s1b" class="animable"></path><path d="M93.82,277c-12.43,9.43-16.53,45.06-16.53,45.06C86.23,307.86,100.05,296.94,93.82,277Z" style="fill: rgb(224, 224, 224); transform-origin: 86.3361px 299.53px;" id="elsiklk2ntvln" class="animable"></path><path d="M77.13,322.54a.52.52,0,0,1-.34-.54c.17-1.46,4.28-35.95,16.73-45.38a.5.5,0,0,1,.46-.08.52.52,0,0,1,.33.33c5,15.88-2.51,26-10.42,36.67-2.08,2.83-4.26,5.75-6.17,8.79a.51.51,0,0,1-.43.23Zm1-2.62c1.6-2.4,3.35-4.72,5-7,7.64-10.32,14.85-20.08,10.48-35.07C83.61,286.2,79.2,312.18,78.09,319.92Z" style="fill: rgb(224, 224, 224); transform-origin: 86.3552px 299.538px;" id="ellwc5ijvxkeh" class="animable"></path><path d="M47.38,272.06c14.62,5.4,28.48,30.79,28.48,30.79C63.18,291.85,47.19,292.93,47.38,272.06Z" style="fill: rgb(224, 224, 224); transform-origin: 61.6192px 287.455px;" id="elklhseydwkiq" class="animable"></path><path d="M75.53,303.23a60.57,60.57,0,0,0-12.16-7.74c-8.92-4.71-16.63-8.77-16.5-23.43a.5.5,0,0,1,0-.16.51.51,0,0,1,.65-.3c14.63,5.4,28.18,30,28.75,31a.5.5,0,0,1-.12.63.54.54,0,0,1-.32.11A.5.5,0,0,1,75.53,303.23ZM47.88,272.8c.14,13.45,7.48,17.33,16,21.8a72.24,72.24,0,0,1,10.23,6.15c-3.8-6.26-14.79-23.23-26.22-27.95Z" style="fill: rgb(224, 224, 224); transform-origin: 61.5984px 287.455px;" id="el6ea98qhkcbc" class="animable"></path><path d="M78.21,236.75c-7,5.48-8.87,23.35-8.87,23.35C74.28,251.92,82,248,78.21,236.75Z" style="fill: rgb(224, 224, 224); transform-origin: 74.2811px 248.425px;" id="el6ksp8wckfnc" class="animable"></path><path d="M69.2,260.36a.28.28,0,0,1-.18-.3c.1-.73,2-18.05,9-23.55a.28.28,0,0,1,.45.14c2.81,8.47-.68,12.82-4.73,17.86a54.49,54.49,0,0,0-4.18,5.73.27.27,0,0,1-.23.14A.22.22,0,0,1,69.2,260.36Zm.58-1.5c1.13-1.7,2.34-3.23,3.53-4.7,3.87-4.83,7.21-9,4.75-16.93C72.56,242,70.36,254.77,69.78,258.86Z" style="fill: rgb(224, 224, 224); transform-origin: 74.2517px 248.413px;" id="elduhoxog75aj" class="animable"></path><path d="M65.9,248.24a59.25,59.25,0,0,0-5.6-4c-5.48-3.57-10.22-6.66-10.3-15.67a.31.31,0,0,1,.13-.24.3.3,0,0,1,.26,0c8.39,2.94,15.64,18.93,16,19.61a.29.29,0,0,1-.09.34.28.28,0,0,1-.18.06A.27.27,0,0,1,65.9,248.24Z" style="fill: rgb(224, 224, 224); transform-origin: 58.206px 238.32px;" id="elotfqrd79oe" class="animable"></path><rect x="288.82" y="267.4" width="32.5" height="13.5" style="fill: rgb(230, 230, 230); transform-origin: 305.07px 274.15px;" id="el8cx0uayu4qq" class="animable"></rect><rect x="305.08" y="280.89" width="32.5" height="13.5" style="fill: rgb(245, 245, 245); transform-origin: 321.33px 287.64px;" id="eliv0v5q2vyii" class="animable"></rect><rect x="178.03" y="133.62" width="32.5" height="13.5" style="fill: rgb(224, 224, 224); transform-origin: 194.28px 140.37px;" id="el4iqr0bvwy1m" class="animable"></rect><rect x="284.54" y="133.69" width="32.5" height="13.5" style="fill: rgb(224, 224, 224); transform-origin: 300.79px 140.44px;" id="el5mgu1yajwli" class="animable"></rect><rect x="270.37" y="120.62" width="32.5" height="13.5" style="fill: rgb(245, 245, 245); transform-origin: 286.62px 127.37px;" id="el6w0qkxw6a5x" class="animable"></rect><rect x="282.34" y="50.58" width="32.5" height="13.5" style="fill: rgb(224, 224, 224); transform-origin: 298.59px 57.33px;" id="el5j0xcxozkn3" class="animable"></rect><rect x="268.17" y="37.5" width="32.5" height="13.5" style="fill: rgb(245, 245, 245); transform-origin: 284.42px 44.25px;" id="eld1lv3i3isaf" class="animable"></rect><rect x="64.11" y="198.38" width="32.5" height="13.5" style="fill: rgb(224, 224, 224); transform-origin: 80.36px 205.13px;" id="elz683z8d4gpo" class="animable"></rect><rect x="82.17" y="184.99" width="32.5" height="13.5" style="fill: rgb(240, 240, 240); transform-origin: 98.42px 191.74px;" id="elh698p1tye1o" class="animable"></rect><rect x="433.09" y="225.12" width="32.5" height="13.5" style="fill: rgb(224, 224, 224); transform-origin: 449.34px 231.87px;" id="elzy026fl2wch" class="animable"></rect><rect x="451.16" y="211.73" width="32.5" height="13.5" style="fill: rgb(230, 230, 230); transform-origin: 467.41px 218.48px;" id="ellshcxa3qgqf" class="animable"></rect><rect x="452.23" y="238.37" width="32.5" height="13.5" style="fill: rgb(245, 245, 245); transform-origin: 468.48px 245.12px;" id="elcjr4zl66hn5" class="animable"></rect><rect x="191.99" y="70.28" width="32.5" height="13.5" style="fill: rgb(245, 245, 245); transform-origin: 208.24px 77.03px;" id="elpjc8bff3bfe" class="animable"></rect><rect x="433.66" y="97.29" width="32.5" height="13.5" style="fill: rgb(245, 245, 245); transform-origin: 449.91px 104.04px;" id="el35q00yzama5" class="animable"></rect><path d="M424.64,366.48c0-.51-1.73-51.16-10-59.17-8-7.79-17.21-.29-17.6,0l-.82-1c.1-.09,10.48-8.56,19.32,0,8.6,8.37,10.29,57.95,10.36,60.06Z" style="fill: rgb(224, 224, 224); transform-origin: 411.06px 334.483px;" id="eliv0q67qms08" class="animable"></path><path d="M425.35,376.43c-.06-.6-5.64-60.8,16.35-86l1,.84c-21.62,24.82-16.1,84.47-16,85.07Z" style="fill: rgb(224, 224, 224); transform-origin: 433.688px 333.43px;" id="el0bwzxl3zk18v" class="animable"></path><path d="M424.53,370.06l-1.28-.08c0-.68,4.3-68.44-11.83-83.27l.87-.95C428.87,301,424.72,367.25,424.53,370.06Z" style="fill: rgb(224, 224, 224); transform-origin: 418.273px 327.91px;" id="elvv2bz6yzqp" class="animable"></path><path d="M426.63,370h-1.29c0-1.87.53-45.77,13-52.92a8.82,8.82,0,0,1,8.07-.78c7.54,3.12,11.28,16.54,11.43,17.1l-1.24.35c0-.14-3.73-13.39-10.68-16.26a7.58,7.58,0,0,0-6.93.71C427.15,325,426.64,369.58,426.63,370Z" style="fill: rgb(224, 224, 224); transform-origin: 441.59px 342.833px;" id="elyz1q7e4elbl" class="animable"></path><path d="M421.78,370.06l-1.29-.08c0-.34,1.88-34.69-7.39-46.79-2.25-2.93-4.68-4.33-7.26-4.15-6.07.43-11.16,9.32-11.22,9.4l-1.12-.63c.22-.39,5.48-9.58,12.25-10.05,3-.22,5.85,1.35,8.37,4.65C423.68,334.89,421.86,368.63,421.78,370.06Z" style="fill: rgb(224, 224, 224); transform-origin: 407.734px 343.9px;" id="el91ysces8gm7" class="animable"></path><path d="M423.81,374.73c-.25-3.33-6.06-81.75,4.16-95.57l1,.76c-9.93,13.44-4,93.9-3.91,94.71Z" style="fill: rgb(224, 224, 224); transform-origin: 425.455px 326.945px;" id="elttx7guk385s" class="animable"></path><path d="M449.19,324.27s-6.13,2.25-4.31,7.59S466.09,346,466.09,346s8.12-7.44.66-19.54S449.36,320.45,449.19,324.27Z" style="fill: rgb(235, 235, 235); transform-origin: 457.223px 332.655px;" id="el3w4t5e15r55" class="animable"></path><path d="M422.55,314.11s6.52-.27,6.89,5.35-14.14,21.19-14.14,21.19-10.35-3.74-8.13-17.78S420.92,310.65,422.55,314.11Z" style="fill: rgb(235, 235, 235); transform-origin: 418.152px 326.152px;" id="elil228lwnyr" class="animable"></path><path d="M417,287.18s4.35-.46,4-3.11-16.92-9.48-26.69,1.55c0,0,6.26,10.75,15.31,10.9S417,287.18,417,287.18Z" style="fill: rgb(235, 235, 235); transform-origin: 407.665px 288.031px;" id="el5fik4v8mwwr" class="animable"></path><path d="M425.13,280.75s-3.94,1.9-5.05-.53,9.35-17,23.48-12.8c0,0,.37,12.44-7.23,17.34S425.13,280.75,425.13,280.75Z" style="fill: rgb(235, 235, 235); transform-origin: 431.781px 276.448px;" id="el5xl3veawiq9" class="animable"></path><path d="M404.52,322.12s3-2.42-.23-3.61-19.15-.84-19.31,14.91c0,0,18.52,3.08,20.81-2.92S404.52,322.12,404.52,322.12Z" style="fill: rgb(235, 235, 235); transform-origin: 395.769px 326.151px;" id="elv4ftdkbg0n" class="animable"></path><path d="M442.29,286.79s-3-2.43.24-3.61,19.15-.85,19.31,14.91c0,0-18.52,3.07-20.81-2.93S442.29,286.79,442.29,286.79Z" style="fill: rgb(235, 235, 235); transform-origin: 451.05px 290.82px;" id="el0zid3dq1txz" class="animable"></path><path d="M432.5,299.48s-.26-3,2.12-1.79,10.67,10.1,2.07,18.58c0,0-11.56-8.56-9.48-13S432.5,299.48,432.5,299.48Z" style="fill: rgb(235, 235, 235); transform-origin: 433.733px 306.836px;" id="eld4rc5g96m7" class="animable"></path><path d="M401.84,303.68s1.8-2.35-.83-2.65-14.42,2.86-11.67,14.62c0,0,14.35-1.08,15-6S401.84,303.68,401.84,303.68Z" style="fill: rgb(235, 235, 235); transform-origin: 396.678px 308.33px;" id="el66ga1x8j5as" class="animable"></path><polygon points="438.7 392.75 409.74 392.75 402.04 357.23 445.67 357.23 438.7 392.75" style="fill: rgb(240, 240, 240); transform-origin: 423.855px 374.99px;" id="elhew0yaqv1of" class="animable"></polygon><rect x="399.42" y="356.71" width="48.77" height="10.22" style="fill: rgb(230, 230, 230); transform-origin: 423.805px 361.82px;" id="eln7o4pq3q9" class="animable"></rect></g><g id="freepik--Shadow--inject-2" class="animable" style="transform-origin: 250px 448.395px;"><path d="M458.88,448.39c0,3.39-93.52,6.14-208.88,6.14s-208.88-2.75-208.88-6.14,93.52-6.13,208.88-6.13S458.88,445,458.88,448.39Z" style="fill: rgb(245, 245, 245); transform-origin: 250px 448.395px;" id="elhhepcn6oax" class="animable"></path></g><g id="freepik--speech-bubble-2--inject-2" class="animable" style="transform-origin: 341.89px 128.98px;"><rect x="323.63" y="111.13" width="36.52" height="29.18" rx="6.65" style="fill: #2A5A63; transform-origin: 341.89px 125.72px;" id="ele7dcmrkj4k" class="animable"></rect><circle cx="350.14" cy="125.72" r="1.87" style="fill: rgb(255, 255, 255); transform-origin: 350.14px 125.72px;" id="eloaihn5zzgno" class="animable"></circle><path d="M340,125.72a1.87,1.87,0,1,0,1.87-1.87A1.87,1.87,0,0,0,340,125.72Z" style="fill: rgb(255, 255, 255); transform-origin: 341.87px 125.72px;" id="el5t2xzvhk0j" class="animable"></path><circle cx="333.64" cy="125.72" r="1.87" style="fill: rgb(255, 255, 255); transform-origin: 333.64px 125.72px;" id="elty8ccfgzoaq" class="animable"></circle><polygon points="347.8 139.64 354.99 146.83 354.99 137.98 347.8 139.64" style="fill: #2A5A63; transform-origin: 351.395px 142.405px;" id="eltmug2psp3f" class="animable"></polygon></g><g id="freepik--speech-bubble-1--inject-2" class="animable" style="transform-origin: 174.42px 114.31px;"><rect x="156.16" y="96.72" width="36.52" height="29.18" rx="6.65" style="fill: #2A5A63; transform-origin: 174.42px 111.31px;" id="elf5gpltxllst" class="animable"></rect><circle cx="182.67" cy="111.31" r="1.87" style="fill: rgb(255, 255, 255); transform-origin: 182.67px 111.31px;" id="elmxoejc7mgu" class="animable"></circle><path d="M172.55,111.31a1.87,1.87,0,1,0,1.87-1.88A1.87,1.87,0,0,0,172.55,111.31Z" style="fill: rgb(255, 255, 255); transform-origin: 174.42px 111.3px;" id="elacqec2yvo7h" class="animable"></path><circle cx="166.17" cy="111.31" r="1.87" style="fill: rgb(255, 255, 255); transform-origin: 166.17px 111.31px;" id="elhhd5vnvpyzl" class="animable"></circle><polygon points="164.45 124.71 164.45 131.9 171.63 123.05 164.45 124.71" style="fill: #2A5A63; transform-origin: 168.04px 127.475px;" id="el0mc0vuz5f8q" class="animable"></polygon></g><g id="freepik--character-3--inject-2" class="animable" style="transform-origin: 374.604px 287.219px;"><path d="M327.23,213.57c.22,0,9.57,4.69,9.57,4.69l4.49-10.89-7.55.06s-6.89,6-6.7,6.07" style="fill: rgb(185, 121, 100); transform-origin: 334.163px 212.815px;" id="elh2cwtr91jvq" class="animable"></path><path d="M334.13,207.56s-.15-3.5-2.29-5.43-3.35-4-5-5.37-1.13,1.52-.53,3,1.28,3.11.11,3.39-11.06-2.64-12.64-2.07-.12,1.54-.12,1.54-2.22-.64-2.94.25.56,1.7.56,1.7-1.51-.37-1.65.72,7.45,4.7,7.7,5c0,0-3.82-2.92-4.9-2s1.58,2.6,3.68,4a11.17,11.17,0,0,0,7.29,1.87c2.54-.3,7,.52,8.53-2A23.57,23.57,0,0,0,334.13,207.56Z" style="fill: rgb(185, 121, 100); transform-origin: 321.879px 205.304px;" id="elhzvy1cnyllh" class="animable"></path><g id="elj1m1vpgnwgl"><g style="opacity: 0.2; transform-origin: 316.452px 206.138px;" class="animable" id="elqcdzmqnxd8i"><path d="M311.49,204.87c2.53.75,5,1.58,7.5,2.49a15.43,15.43,0,0,0-.51,2c-.05.34.47.29.54,0a14.72,14.72,0,0,1,2.5-5.85c.21-.29-.23-.51-.44-.22a15.69,15.69,0,0,0-.86,1.38.18.18,0,0,0-.1-.09,26.25,26.25,0,0,0-5.92-1.9c-.32,0-.51.45-.18.52a24.92,24.92,0,0,1,5.79,1.84c.07,0-.27.77-.2.75a5,5,0,0,0-.44,1.11q-3.69-1.37-7.51-2.49C311.36,204.28,311.18,204.78,311.49,204.87Z" id="elaq0y08t5x7n" class="animable" style="transform-origin: 316.452px 206.138px;"></path></g></g><g id="elgy29himpz9f"><g style="opacity: 0.2; transform-origin: 325.801px 207.798px;" class="animable" id="elh7pp4kk58bw"><path d="M322.12,206.67a6.25,6.25,0,0,1,7.16,2.85c.15.28.64,0,.49-.28-1.46-2.64-4.44-3.8-7.74-3.06A.25.25,0,1,0,322.12,206.67Z" id="elu5nbarkajoi" class="animable" style="transform-origin: 325.801px 207.798px;"></path></g></g><path d="M372.24,165.12c.13.22.26.43.41.64-4.54,3.53.09,8.17,1.49,8.89a12.39,12.39,0,0,0,3.39,1.22c5.6,1.2,10.39-1.76,13-3.21,3.7-2.11,3.53-9.56,5.64-13.43,2.76-5,7.4-17.54,3.21-26.91a20.36,20.36,0,0,0-3.87-6.13c-2.3-2.24-5.79-2.6-8.86-1.61a19.1,19.1,0,0,0-7.86,5.61,36.25,36.25,0,0,0-8.56,15.06c-1.44,5.31.26,7.07,1.41,10.43l0,.11C370.65,158.88,370.67,162.44,372.24,165.12Z" style="fill: rgb(38, 50, 56); transform-origin: 385.368px 150.104px;" id="elqmd937rfv4a" class="animable"></path><path d="M383,176.38s7.81-.89,15.94-.9c4.69,0,3.35-5.13,9-1.21,2-3.74,1-8.39-1.22-12a11.05,11.05,0,0,0-1.68-2.11,10.49,10.49,0,0,0-1.56-1.26,8.78,8.78,0,0,0-.94-.54,10.28,10.28,0,0,0-2.68-1,11.4,11.4,0,0,0-4.76-.16,13.81,13.81,0,0,0-6.15,3h0a16,16,0,0,0-2.32,2.34,13.8,13.8,0,0,0-1,1.35,18.4,18.4,0,0,0-1.09,1.88,1.25,1.25,0,0,0,0,.19h0a14.44,14.44,0,0,0-.85,6.57C383.75,173.86,382.8,175.23,383,176.38Z" style="fill: rgb(38, 50, 56); transform-origin: 395.995px 166.701px;" id="elot0iikcuvf" class="animable"></path><path d="M387.46,185.84c1.65,1.71,3.16,1.14,5.37.23C406,181.34,402.09,175,402.09,175c-2.49-2.93-2.6-6.43-1.69-11.77,0-.15,0-.31,0-.47a3.46,3.46,0,0,0-.66-2,3.52,3.52,0,0,0-4.9-.92h0L389,161.55h0c0,.08,0,.16-.05.25,0,2.92.07,5.18.05,7a3.45,3.45,0,0,0,0,.64h0a3.67,3.67,0,0,0,0,.66c-.14,2.44-4.28,6-6,6.88C382,177.53,381.84,180.08,387.46,185.84Z" style="fill: rgb(185, 121, 100); transform-origin: 392.546px 173.082px;" id="el82m1fqccsel" class="animable"></path><path d="M404.84,143c-.23,10.07-.1,14.32-4.88,19.78-7.2,8.21-19.26,6-22-3.86-2.42-8.89-1.7-23.83,7.79-28.45S405.06,132.87,404.84,143Z" style="fill: rgb(185, 121, 100); transform-origin: 390.813px 148.418px;" id="el7x3yahxmd1r" class="animable"></path><path d="M393.56,143.83a16.32,16.32,0,0,1,6.14,6.09l.26.41c.33.57.64,1.16.94,1.77a26.26,26.26,0,0,1,1.27,3.22,15.24,15.24,0,0,1,.47,1.77c.13.65.32,1.49.44,2.25l.09.75a24.74,24.74,0,0,1-1.95,12.65.29.29,0,0,1,0,.09l.2-.1c0,5.16,2.77,2.49,2.77,2.49s7.24,2.75,9.88,3.85c9.7,4,12.83-5.14,8.65-12.1-.38-.64-2.77-3.11-3-3.33a4.54,4.54,0,0,0,4.17-6.19c-.93-3.16-3.19-5.77-5.52-8-.43-.4-.9-.77-1.3-1.14a2.67,2.67,0,0,0,1,.2h0a3.55,3.55,0,0,0,3.29-2c1.95-4.8-7-2.65-13.08-18.32-2.32-6-8.16-4.24-13.6-3.1l-.28.06c-5.7,1.25-8.82,3.71-9.64,6.58C383.56,135.66,386.75,140.38,393.56,143.83Z" style="fill: rgb(38, 50, 56); transform-origin: 404.521px 151.992px;" id="elwo6pg3mwrsc" class="animable"></path><path d="M401.18,143.21c-2,1-1.7,10.48,3.15,10.09S407.85,139.85,401.18,143.21Z" style="fill: rgb(38, 50, 56); transform-origin: 403.628px 147.985px;" id="elzg6qh1gakzp" class="animable"></path><path d="M409.3,151.57a8.17,8.17,0,0,1-4.59,4.24c-2.62.89-4.36-3.29-3.68-6.05a5.39,5.39,0,0,1,5.76-4C409.4,146.07,410.46,149.09,409.3,151.57Z" style="fill: rgb(185, 121, 100); transform-origin: 405.325px 150.832px;" id="elqif7u6v999" class="animable"></path><g id="ela5lotgi5hec"><path d="M403.6,151.76a.25.25,0,0,1-.25-.24,3.93,3.93,0,0,1,3.85-4,.27.27,0,0,1,.26.24.26.26,0,0,1-.25.26,3.43,3.43,0,0,0-3.36,3.49.25.25,0,0,1-.25.25Z" style="opacity: 0.2; transform-origin: 405.405px 149.64px;" class="animable" id="elzlpprjn1a0n"></path></g><path d="M400.24,129c1.06,3.3,4,3.14,5.86,6.08s2.93,6.95.87,9.74a26.5,26.5,0,0,0-1.9,2.31c-1.36,2.4.19,5.38.24,8.15.05,2.57.19,5.61-1.88,7a6.33,6.33,0,0,0-2.82,5.15c0,.65,2,5.07,2.11,5.71.13.93-2.49-2-3.42-1.84a1.7,1.7,0,0,1-1.71-.81,1.77,1.77,0,0,1-.15-.31,11.81,11.81,0,0,1-.36-10c.8-1.83,1.68-3.61,2.48-5.44a10.05,10.05,0,0,0,1-5.81c-.87-4.48-11.52-14.59-3-22.79a.56.56,0,0,1,.42-.18,2.13,2.13,0,0,1,1.75,1.11A9.81,9.81,0,0,1,400.24,129Z" style="fill: rgb(38, 50, 56); transform-origin: 401.184px 149.641px;" id="elzmurzr5fz3i" class="animable"></path><path d="M391.73,147.28c0,1.08-.47,2-1.13,2.07s-1.24-.74-1.28-1.81.47-2,1.13-2.07S391.68,146.21,391.73,147.28Z" style="fill: rgb(38, 50, 56); transform-origin: 390.524px 147.41px;" id="elyuwizadop1" class="animable"></path><path d="M381.76,148.1c0,1-.47,1.94-1.13,2s-1.23-.72-1.27-1.76.47-1.94,1.13-2S381.72,147.06,381.76,148.1Z" style="fill: rgb(38, 50, 56); transform-origin: 380.559px 148.22px;" id="el43j32ffqzi2" class="animable"></path><path d="M393.52,143.38a.45.45,0,0,1-.37-.08,3.66,3.66,0,0,0-3.41-.65.46.46,0,0,1-.61-.29.54.54,0,0,1,.32-.65,4.57,4.57,0,0,1,4.32.77.51.51,0,0,1,.06.7A.48.48,0,0,1,393.52,143.38Z" style="fill: rgb(38, 50, 56); transform-origin: 391.525px 142.431px;" id="elpsoqymtiavt" class="animable"></path><path d="M378,143.31a.36.36,0,0,1-.25-.2.55.55,0,0,1,.2-.67,4.18,4.18,0,0,1,4.07-.61.46.46,0,0,1,.16.63.49.49,0,0,1-.61.26,3.32,3.32,0,0,0-3.22.52A.41.41,0,0,1,378,143.31Z" style="fill: rgb(38, 50, 56); transform-origin: 379.976px 142.438px;" id="el71t84fhnh2m" class="animable"></path><path d="M384.43,147.38a34.2,34.2,0,0,1-2.85,6.42.79.79,0,0,0,.47,1.16,5,5,0,0,0,2.71-.19Z" style="fill: rgb(162, 78, 63); transform-origin: 383.116px 151.222px;" id="ellgp3p3a4p1e" class="animable"></path><path d="M390.83,145.48l-2.36-.35S389.88,146.75,390.83,145.48Z" style="fill: rgb(38, 50, 56); transform-origin: 389.65px 145.548px;" id="el7coc7icwe4k" class="animable"></path><path d="M380.73,146.34l-2.36-.35S379.78,147.61,380.73,146.34Z" style="fill: rgb(38, 50, 56); transform-origin: 379.55px 146.408px;" id="el2cfudir4dhn" class="animable"></path><path d="M376.49,176a20.11,20.11,0,0,0-10.2,11.68c-3.06,9.15-4.81,23.2-4.81,23.2s-20.93-4.81-25.74-5.51l-4,11.15s27.63,12.91,30.34,13.63c8,2.14,12.13-11.72,12.13-11.72L377,175.7Z" style="fill: #2A5A63; transform-origin: 354.37px 203.037px;" id="elpydrxoxlmqq" class="animable"></path><path d="M419.24,431.36l-1.05,1.46-2.06-.9-1.29,6.38-8.73,12.19s-3.32.54-.71-6.39a5.19,5.19,0,0,0,.28-1.05c.78-4.14-.93-12.09-.93-12.09l4.79-6.69a10.53,10.53,0,0,1,1.35.15C412.87,424.75,416.84,425.72,419.24,431.36Z" style="fill: #2A5A63; transform-origin: 411.82px 437.385px;" id="elalen39iswye" class="animable"></path><g id="el8ucdhq3r4od"><path d="M419.24,431.36l-1.05,1.46-2.06-.9-1.29,6.38-8.73,12.19s-3.32.54-.71-6.39a5.19,5.19,0,0,0,.28-1.05c.78-4.14-.93-12.09-.93-12.09l4.79-6.69a10.53,10.53,0,0,1,1.35.15C412.87,424.75,416.84,425.72,419.24,431.36Z" style="opacity: 0.2; transform-origin: 411.82px 437.385px;" class="animable" id="ele4bvf16nz9p"></path></g><path d="M410.89,424.42l0,0c-1.61.17-.2,7.31-.85,11.31-.58,3.58-2.12,6.95-4.38,7.3.78-4.14-2-13.59-2-13.59l3.85-5.38S410,424.28,410.89,424.42Z" style="fill: rgb(162, 78, 63); transform-origin: 407.275px 433.545px;" id="el6nixe4unjmr" class="animable"></path><path d="M405.88,450H404.1l-.49-2.22-5.89,2.68H382.81s-2.37-2.4,4.73-4.32a5,5,0,0,0,1-.38c3.79-1.79,9.18-7.84,9.18-7.84h8.18a9.35,9.35,0,0,1,.67,1.19C407.47,441,409,444.77,405.88,450Z" style="fill: #2A5A63; transform-origin: 395.089px 444.19px;" id="el4kggmphpoys" class="animable"></path><path d="M406.57,439.15v0c-1.08-1.21-6,4.12-9.59,5.94-3.22,1.61-6.83,2.33-8.44.69,3.79-1.79,9.8-10,9.8-10l6.58.21S406.19,438.37,406.57,439.15Z" style="fill: rgb(185, 121, 100); transform-origin: 397.555px 441.245px;" id="elbtp2bnbjwsr" class="animable"></path><path d="M392.32,367.08c-4.06-11.18-9-22.19-15-31.09C401.73,266,401,234.66,401,234.66l-29.38,0-3.14,11.71s-7.34,29.15-9.48,45.88l-6.13,37.2v.1a42,42,0,0,0,4.94,22.2c4,7.42,11.06,16.23,14.93,24.23,5.1,10.56,9.92,21.14,14,30.61,4.33,10,7.86,18.7,10,24.76,2.09.24,8.37-3.54,10.18-7C407,424.36,402.51,395.16,392.32,367.08Z" style="fill: rgb(38, 50, 56); transform-origin: 379.863px 333.01px;" id="elixy9tglz89" class="animable"></path><g id="els0po2xpqli"><path d="M384.12,315.16c3.58-11.9,7.58-18.68,9.41-27.52,0-2.06-6.84-10.89-10.33-14.45C383.2,273.19,379,290.07,384.12,315.16Z" style="opacity: 0.2; transform-origin: 387.554px 294.175px;" class="animable" id="elt9i7lhdwowq"></path></g><g id="elzkq883mh4uh"><path d="M386.73,406.56c4.33,10,7.86,18.7,10,24.76,2.09.24,8.37-3.54,10.18-7,0,0-4.45-29.2-14.64-57.28C390.25,378.68,387.94,393.33,386.73,406.56Z" style="opacity: 0.2; transform-origin: 396.82px 399.185px;" class="animable" id="els2hdcan05rn"></path></g><path d="M379,235.3s11.18,77.33,12.48,94.74c0,0,6.91,84.46,5.68,105.69l15.41.75s10.36-64,5.12-105c-.45-5.35,4.32-40.26,5.08-54.16,1.81-33.45-11.76-42.64-11.76-42.64Z" style="fill: rgb(38, 50, 56); transform-origin: 400.968px 335.58px;" id="el5jo8ov6q9dd" class="animable"></path><g id="el0k94zaey6q4c"><polygon points="398.51 236.46 400.96 274.87 422.93 272.25 422.93 268.3 398.51 236.46" style="opacity: 0.2; transform-origin: 410.72px 255.665px;" class="animable" id="elyxa3znpfqmo"></polygon></g><path d="M409.14,237.42c.86-9.75,4.32-27.6,10.28-46.36,1.94-6.1-1.35-13-1.35-13s-8.11-.21-8.93-.3-1.82-.2-2.74-.28a130.05,130.05,0,0,0-18.87-.64c-1.56.09-3.16.22-4.73.35-.51.06-3.8.1-4.3.16,0,0-8.92,10.44-9.4,17.81-.26,4.12-2.25,5.89-2,15.74,0,6.69,4.89,16.43,5.34,25.84Z" style="fill: rgb(255, 255, 255); transform-origin: 393.555px 207.081px;" id="el3kgkmb07km" class="animable"></path><path d="M402.2,271.75l25.85-2.7-16.38-45.9s1.36-.46,3.7-9.24c1.14-4.28,2.32-8.82,3.32-12.86a106.45,106.45,0,0,0,2.63-12.22c.26-4.92-5.71-12.72-5.71-12.72l-15.13-1.86s-2.89,10.45-3.5,30.42S402.2,271.75,402.2,271.75Z" style="fill: #2A5A63; transform-origin: 412.493px 223px;" id="elsb5nwacp3wk" class="animable"></path><path d="M387.43,173.09s-13,15.69-16.2,27c-2.1,7.44,2,28.9,1.56,34.57-.8,9.36-4.93,20.8-10.29,37.57l-3.54-.5,9.76-37.12s-4.52-28-3.32-35,11.63-24,11.63-24l4.76-.32Z" style="fill: #2A5A63; transform-origin: 373.195px 222.66px;" id="el24rse6mz5kg" class="animable"></path><path d="M400.88,172.05s-5.85,11.55-3.64,40.6L407,191.76l-3.52-5.7,4.67-9.33s-5-3.21-7.09-4.91Z" style="fill: #2A5A63; transform-origin: 402.446px 192.235px;" id="el3wkwgp7ncyk" class="animable"></path><g id="el08cgteed005w"><path d="M413.49,211.53a4.84,4.84,0,0,0,1.88,2.38c1.14-4.28,2.32-8.82,3.32-12.86-2.63-3.2-4.85-5.87-4.85-5.87S410.81,204.66,413.49,211.53Z" style="opacity: 0.2; transform-origin: 415.537px 204.545px;" class="animable" id="elkq1ygoyzold"></path></g><path d="M392.4,218.5c.06-4-.94-4.62-1.49-5.34a3.17,3.17,0,0,1-1-2c0-.86-.35-4.62-.42-5.82s-.61-3-.45-3.61l0-.12a3.06,3.06,0,0,0-1.85-.32l-.38.07a2.08,2.08,0,0,1-1,.06l-.42-.09a2.79,2.79,0,0,0-.89-.11,1.71,1.71,0,0,0-.54.13q0,.15.09.39c.16.61-.37,2.4-.43,3.61s-.37,5-.41,5.83a3.19,3.19,0,0,1-1,2c-.55.72-1.55,1.35-1.48,5.34s.16,12.87.16,12.87c0,.41,0,.86,0,1.28a3.77,3.77,0,0,0,.93,2.44,2.82,2.82,0,0,0,1.88.58h5.66a3,3,0,0,0,1.78-.49c1.19-1,1-2.57,1.05-3.83C392.29,231.36,392.34,222.49,392.4,218.5Z" style="fill: #2A5A63; transform-origin: 386.565px 218.456px;" id="eltoedgt4dju" class="animable"></path><rect x="383.78" y="200.83" width="5.5" height="1.54" rx="0.74" style="fill: #2A5A63; transform-origin: 386.53px 201.6px;" id="el1x1lwcvqp5d" class="animable"></rect><g id="el8ororef1rvy"><g style="isolation: isolate; opacity: 0.4; transform-origin: 386.633px 218.504px;" class="animable" id="elg3ygyklzjsl"><path d="M390.07,213.84l-.21-.25a3.43,3.43,0,0,1-.95-2.14c0-.45-.13-1.76-.22-3v0c-.08-1.08-.17-2.19-.2-2.76,0-.19,0-2.81-.07-3H385c0,.22-.27,2.85-.28,3,0,.56-.11,1.68-.19,2.76v0c-.1,1.27-.19,2.57-.21,3a3.43,3.43,0,0,1-.95,2.14c-.07.08-.13.17-.2.26l-.24.29c-.48.56-1.14,1.34-1.08,4.59,0,1.44.05,2.87.07,4.31,0,2.53.08,5.06.08,7.59a4.22,4.22,0,0,0,.65,2.92c.64.81,2.19.76,3.19.76a31.16,31.16,0,0,0,3.35-.1,3.12,3.12,0,0,0,1.58-.51c.74-.56.57-2.06.58-2.8,0-1.89,0-3.78,0-5.66,0-2.18,0-4.35.07-6.53,0-3.25-.62-4-1.1-4.59A3.07,3.07,0,0,1,390.07,213.84Z" style="fill: rgb(255, 255, 255); transform-origin: 386.633px 218.504px;" id="elij9wijtkydl" class="animable"></path></g></g><path d="M386.7,230.91h0a3.82,3.82,0,0,1-3.83-3.82v-5.33a3.83,3.83,0,0,1,3.83-3.83h0a3.83,3.83,0,0,1,3.82,3.83v5.33A3.82,3.82,0,0,1,386.7,230.91Z" style="fill: #2A5A63; transform-origin: 386.695px 224.42px;" id="elrs9ntf4vdbh" class="animable"></path><path d="M385.07,218.69l8.47,2.45,1.77,5.65c-.81,4.59-9.57,2.63-9.57,2.63l-1.8,1.14c-1.45.93-4.92-.09-5.22-1.8l-.2-4.38c-.16-.89,1-2.6,1.71-3.15l2.68-2.11A2.44,2.44,0,0,1,385.07,218.69Z" style="fill: rgb(185, 121, 100); transform-origin: 386.908px 224.756px;" id="el7ztht8yve3m" class="animable"></path><path d="M415.2,176.08c5.7-.24,18.87,27.18,24,40.55,1.52,4-1.83,9-4.77,9.85-6.6,1.82-39.65,3.64-39.65,3.64l-1.25-9.84,28.1-5.89-9-13.56s-3.36-6.84-2.74-13.18S415.2,176.08,415.2,176.08Z" style="fill: #2A5A63; transform-origin: 416.555px 203.099px;" id="elyk0rmm94lv" class="animable"></path><path d="M385.42,157.54a23.65,23.65,0,0,1,1.95,2.82l.57-.22c2.55-1,3.39-2.34,3.55-3.49a3.51,3.51,0,0,0-.2-1.66,3.55,3.55,0,0,0-.43-.86c-1,1.35-3.32,2.49-4.58,3.05C385.76,157.41,385.42,157.54,385.42,157.54Z" style="fill: rgb(38, 50, 56); transform-origin: 388.468px 157.245px;" id="elgiyof39k59q" class="animable"></path><path d="M386.28,157.18l.6.81c2.4-1,3.95-2,4.41-3a3.55,3.55,0,0,0-.43-.86C389.84,155.48,387.54,156.62,386.28,157.18Z" style="fill: rgb(255, 255, 255); transform-origin: 388.785px 156.06px;" id="eluphy0ekqvz" class="animable"></path><path d="M387.94,160.14c2.55-1,3.39-2.34,3.55-3.49a9,9,0,0,0-2.6,1.7A3.35,3.35,0,0,0,387.94,160.14Z" style="fill: rgb(222, 87, 83); transform-origin: 389.715px 158.395px;" id="elz8m5q2noohb" class="animable"></path><g id="elbnqzukxksui"><g style="opacity: 0.2; transform-origin: 402.446px 192.235px;" class="animable" id="elgxwimsbrvt4"><path d="M400.88,172.05s-5.85,11.55-3.64,40.6L407,191.76l-3.52-5.7,4.67-9.33s-5-3.21-7.09-4.91Z" id="eln8taek85kki" class="animable" style="transform-origin: 402.446px 192.235px;"></path></g></g><g id="elc3n0wvcn1a7"><path d="M421.64,214.39s4.17-.64,6.81,1.56c0,0-2.85-4.56-8-3.3Z" style="opacity: 0.2; transform-origin: 424.45px 214.19px;" class="animable" id="el7e13b9ito7f"></path></g><path d="M370.93,212.82a36.85,36.85,0,0,1-1.78-12.32c.39-5.91.49-10.33.49-10.33l6.71-4.95-.89-6.05s3.24-2,6.24-4c2.06-1.39,6.09-3.49,6.62-3.33,0,0-17.14,21.68-17.22,30.55C371,210.93,370.93,212.82,370.93,212.82Z" style="fill: #2A5A63; transform-origin: 378.729px 192.326px;" id="elvw3n0xazyyf" class="animable"></path><g id="el79hhq6d9pa7"><path d="M370.93,212.82a36.85,36.85,0,0,1-1.78-12.32c.39-5.91.49-10.33.49-10.33l6.71-4.95-.89-6.05s3.24-2,6.24-4c2.06-1.39,6.09-3.49,6.62-3.33,0,0-17.14,21.68-17.22,30.55C371,210.93,370.93,212.82,370.93,212.82Z" style="opacity: 0.3; transform-origin: 378.729px 192.326px;" class="animable" id="el204avd7lgal"></path></g><g id="el1nhhbm49yd5"><path d="M367.84,228.85l-2.55-22.73v24.22A26.22,26.22,0,0,0,367.84,228.85Z" style="opacity: 0.3; transform-origin: 366.565px 218.23px;" class="animable" id="elnwt1dmlltem"></path></g><g id="elsujiuwigd1"><polygon points="397.98 229.93 413.71 228.86 414.64 231.46 398.27 233.54 397.98 229.93" style="opacity: 0.2; transform-origin: 406.31px 231.2px;" class="animable" id="elpmbulx1ion"></polygon></g><path d="M384,177.6l4.61-6.33,2.19,3.77,6.65-4.91,3.58,1.69-3.23,9.48s-8.08,3.3-8.51,3.3S384,177.6,384,177.6Z" style="fill: rgb(255, 255, 255); transform-origin: 392.515px 177.365px;" id="elaq89o5xg1qu" class="animable"></path><g id="elc4wrett50e"><polygon points="383.78 177.9 385.66 182.56 390.35 177.9 393.54 183.37 398.31 181.04 393.23 185.06 390.29 179.06 384.91 184.12 383.78 177.9" style="opacity: 0.3; transform-origin: 391.045px 181.48px;" class="animable" id="ell0fdzyfsom"></polygon></g><path d="M392.4,218.5c.06-4-.94-4.62-1.49-5.34a3.17,3.17,0,0,1-1-2c0-.86-.35-4.62-.42-5.82s-.61-3-.45-3.61l0-.12a3.06,3.06,0,0,0-1.85-.32l-.38.07a2.08,2.08,0,0,1-1,.06l-.42-.09a2.79,2.79,0,0,0-.89-.11,1.71,1.71,0,0,0-.54.13q0,.15.09.39c.16.61-.37,2.4-.43,3.61s-.37,5-.41,5.83a3.19,3.19,0,0,1-1,2c-.55.72-1.55,1.35-1.48,5.34s.16,12.87.16,12.87c0,.41,0,.86,0,1.28a3.77,3.77,0,0,0,.93,2.44,2.82,2.82,0,0,0,1.88.58h5.66a3,3,0,0,0,1.78-.49c1.19-1,1-2.57,1.05-3.83C392.29,231.36,392.34,222.49,392.4,218.5Z" style="fill: rgb(255, 255, 255); transform-origin: 386.565px 218.456px;" id="elf91iucwhjnm" class="animable"></path><rect x="383.78" y="200.83" width="5.5" height="1.54" rx="0.74" style="fill: rgb(255, 255, 255); transform-origin: 386.53px 201.6px;" id="el8m5hrj29fq3" class="animable"></rect></g><g id="freepik--character-2--inject-2" class="animable" style="transform-origin: 260.91px 271.098px;"><path d="M328.71,240.92c1.71,1.45,5.14,10.38,4.17,11.76-.77,1.11-2.59-4.1-2.59-4.1Z" style="fill: rgb(137, 85, 85); transform-origin: 330.88px 246.878px;" id="el12h4pit1rht" class="animable"></path><path d="M319.79,233.55s9.22,5.33,9.36,7.75,3.19,13.17-.08,13.11c-.42,0-1.7-3.71-2.05-3.67s.48,2.4,0,3.59c-.65,1.54-5.25.83-5.91-1a53.55,53.55,0,0,1-2.1-7.13s-5.18-3.4-6-7S319.79,233.55,319.79,233.55Z" style="fill: rgb(137, 85, 85); transform-origin: 321.762px 244.361px;" id="el6yyoukwjpxr" class="animable"></path><g id="elf1nktp9sf9f"><path d="M325.77,250.91a1.4,1.4,0,0,1-.4-.07,2.06,2.06,0,0,1-1.1-1.41A22.29,22.29,0,0,1,323,243.5a6.69,6.69,0,0,1-6.57-3.83.26.26,0,0,1,.13-.33.25.25,0,0,1,.33.12,6.14,6.14,0,0,0,6.31,3.51.25.25,0,0,1,.19.05.27.27,0,0,1,.1.18,21.74,21.74,0,0,0,1.21,6.07c.17.46.39.95.8,1.1a1.05,1.05,0,0,0,1.13-.52,3.33,3.33,0,0,0,.39-1.49,30.24,30.24,0,0,0-.3-7.6.24.24,0,0,1,.2-.29.25.25,0,0,1,.29.2,30.41,30.41,0,0,1,.3,7.74,3.56,3.56,0,0,1-.46,1.71A1.65,1.65,0,0,1,325.77,250.91Z" style="opacity: 0.2; transform-origin: 322.021px 245.114px;" class="animable" id="elbnucdv3fr1"></path></g><path d="M289.89,204.3l-3.06-7.42.1,0c-2.59-7.56-8.92-25.74-13.75-36.14-3.38-11.49-13.16-7.82-13.16-7.82-6.58,4.19-10,17.7,5.59,44.91l8.7,16.88a10.05,10.05,0,0,0,3.61,4.54l33.43,23.15L322.43,231Z" style="fill: rgb(38, 50, 56); transform-origin: 288.456px 197.381px;" id="elf9lk7hoxy3v" class="animable"></path><path d="M231.33,148.18s1.51-6.39-1.25-18l.62-.26c-.38-1.62-.79-3.12-1.19-4.42a.28.28,0,0,1,0-.05l15.14,10.41c-.54,3.63.42,10.74,1.06,13.76,0,0,1.71,5.49-5.48,5.37C235,155,231.33,148.18,231.33,148.18Z" style="fill: rgb(137, 85, 85); transform-origin: 237.698px 140.221px;" id="eljpnd80123vf" class="animable"></path><path d="M226.17,99s4.66-10.65,17.66-6.23c8.19,2.78,14,6.44,13.14,13.84-.57,4.91-5.32,8.58-8.34,8.37s-25.06-7.82-25.06-7.82S218.61,101.12,226.17,99Z" style="fill: rgb(38, 50, 56); transform-origin: 239.513px 103.342px;" id="el1p1k7p135q5" class="animable"></path><g id="ela8wq027wev"><g style="opacity: 0.2; transform-origin: 239.938px 137.925px;" class="animable" id="el5s95lim8kcs"><path d="M236.51,138.52a11.4,11.4,0,0,0,8.12,3.42c0-.26,0-.66-.06-.93s0-1-.07-1.49a15.66,15.66,0,0,1,0-1.68c0-.22.12-.18.14-.41l.05-.45-9.05-3.07C234.89,134.44,235,136.78,236.51,138.52Z" id="elz196k6poujh" class="animable" style="transform-origin: 239.938px 137.925px;"></path></g></g><path d="M224.25,116.3A13.58,13.58,0,0,1,240.61,100c10.23,2.37,13.9,16.73,13.2,25.89C253,136,241.63,142.46,233,136.07c-5.76-4.25-6.54-10-8.71-19.77Z" style="fill: rgb(137, 85, 85); transform-origin: 238.894px 119.125px;" id="elmlgn2of96mo" class="animable"></path><path d="M231.24,101s8.67,8.06,17.14,3.9S238.17,92.44,231.24,101Z" style="fill: rgb(38, 50, 56); transform-origin: 240.891px 101.683px;" id="elk0upuz2n5q" class="animable"></path><path d="M233,119.75c-1.58,1.83-2.95,0-6.71-2a4,4,0,0,0-1.86-.51c.88,3.25,1.73,6,2.42,7.89a14,14,0,0,0,.66,1.6,97.19,97.19,0,0,1-7.3-9.53,7.73,7.73,0,0,1-.51-1.11c.06-.13.11-.26.18-.38a7.28,7.28,0,0,1,1-1.53,10.2,10.2,0,0,1,2.2-1.93,21.08,21.08,0,0,1,8.32-3C231.63,112.32,234.27,118.25,233,119.75Z" style="fill: rgb(38, 50, 56); transform-origin: 226.522px 117.99px;" id="elpfy8e3wezur" class="animable"></path><path d="M233.64,103.46s-2.35,1.93-2.32,4.27a20.64,20.64,0,0,0,.73,4.76s-7.13,2.22-8.88,1.73-2.62-5.63-2.62-5.63,8.77-8.51,11.89-8S233.64,103.46,233.64,103.46Z" style="fill: rgb(38, 50, 56); transform-origin: 227.387px 107.429px;" id="el1xr6t15c1su" class="animable"></path><path d="M226.46,100.61a6.29,6.29,0,0,0-6.74,3.09c-2.72,4.2-1.65,9.59,0,12.37S231.25,110,226.46,100.61Z" style="fill: rgb(38, 50, 56); transform-origin: 222.908px 108.537px;" id="elyfby86xyx" class="animable"></path><path d="M221.54,123.37a9.73,9.73,0,0,0,5.32,5.24c3.2,1.25,4-2.2,3.47-5.41-.52-2.89-1.68-6.36-5-6.24S220.33,120.43,221.54,123.37Z" style="fill: rgb(137, 85, 85); transform-origin: 225.814px 122.915px;" id="elj7sx484syjn" class="animable"></path><path d="M238.32,118.45c.09,1,.7,1.78,1.37,1.72s1.12-.94,1-2-.69-1.79-1.36-1.72S238.23,117.44,238.32,118.45Z" style="fill: rgb(38, 50, 56); transform-origin: 239.509px 118.309px;" id="eluv3rgorwmhr" class="animable"></path><path d="M248.15,117.79c.09,1,.7,1.78,1.36,1.72s1.13-.94,1-2-.7-1.78-1.36-1.71S248.06,116.77,248.15,117.79Z" style="fill: rgb(38, 50, 56); transform-origin: 249.335px 117.654px;" id="elme8a1rmuraq" class="animable"></path><path d="M245.22,116.57s3.66,4.75,4.87,6.71c-1.3,1.4-3.78,1-3.78,1Z" style="fill: rgb(119, 55, 55); transform-origin: 247.655px 120.451px;" id="el93t0kf47t7m" class="animable"></path><path d="M235.72,113a.48.48,0,0,0,.47-.11,3.74,3.74,0,0,1,3.29-1.06.49.49,0,0,0,.58-.35.47.47,0,0,0-.35-.57,4.76,4.76,0,0,0-4.17,1.29.47.47,0,0,0,0,.67A.39.39,0,0,0,235.72,113Z" style="fill: rgb(38, 50, 56); transform-origin: 237.737px 111.929px;" id="el2btxat5xqer" class="animable"></path><g id="el4ktwfblozow"><path d="M228.59,123.24a.25.25,0,0,1-.24-.2,4.92,4.92,0,0,0-1.12-2.26,3.07,3.07,0,0,0-1.72-1,1.64,1.64,0,0,0-1.66.72.25.25,0,0,1-.44-.25,2.14,2.14,0,0,1,2.18-1,3.54,3.54,0,0,1,2,1.21,5.48,5.48,0,0,1,1.24,2.49.25.25,0,0,1-.2.29Z" style="opacity: 0.2; transform-origin: 226.106px 121.231px;" class="animable" id="el7c31vrx0skw"></path></g><path d="M252.59,112.18a.46.46,0,0,0,.22-.15.47.47,0,0,0-.06-.67,4.7,4.7,0,0,0-4.21-1,.48.48,0,0,0-.31.6.47.47,0,0,0,.59.32,3.64,3.64,0,0,1,3.33.82A.46.46,0,0,0,252.59,112.18Z" style="fill: rgb(38, 50, 56); transform-origin: 250.566px 111.212px;" id="el38bpv7bi24u" class="animable"></path><path d="M239,126.43a13.71,13.71,0,0,0,6.74,1.53s-.78,2.94-3.53,2.7C238.91,130.36,239,126.43,239,126.43Z" style="fill: rgb(255, 255, 255); transform-origin: 242.37px 128.552px;" id="elrh5ggnbpgvg" class="animable"></path><path d="M242.13,125.15a6.6,6.6,0,0,1,4.28,1.64,3.29,3.29,0,0,1,1,1.37c.5,1.6-5.16.48-7.49-.41s-1.78-1.8-.47-2.34A7.58,7.58,0,0,1,242.13,125.15Z" style="fill: rgb(38, 50, 56); transform-origin: 242.88px 127.046px;" id="elozpw0u5b3bm" class="animable"></path><g id="el9dzbh2g80zf"><path d="M231.52,110s-4.13,2.66-8.26,1.9-5.21-1.68-5.21-1.68l.3,2.25a15.33,15.33,0,0,0,7.76,1.82c4.27-.23,6.08-1.3,6.08-1.3Z" style="fill: rgb(255, 255, 255); opacity: 0.3; transform-origin: 225.12px 112.149px;" class="animable" id="el7tcivy7szxd"></path></g><polygon points="284.61 416.12 293.32 439.64 301.22 437.09 298.5 412.26 284.61 416.12" style="fill: rgb(38, 50, 56); transform-origin: 292.915px 425.95px;" id="elvot3rl3y9yk" class="animable"></polygon><path d="M292.47,449.54l7.16-.06a5.37,5.37,0,0,1,2.3-.68c.84.1,3.8.64,3.8.64l19-.15a16.3,16.3,0,0,0-.57-2.13,10.24,10.24,0,0,0-.92-2,5.35,5.35,0,0,0-4.55-2.68c-2.67-.15-11.09-5.68-11.09-5.68a5,5,0,0,1-3.24-4.28c-.07-1.21-1.87-2.68-2.73-2.79-1.74-.24-2.7.87-2.94,2.61l-.27,2-4-.6s-4.11-2-3.89,0c.12,1.14.84,6.22,1.3,10.24.11.94.21,1.83.3,2.61h0C292.33,448.35,292.47,449.54,292.47,449.54Z" style="fill: rgb(38, 50, 56); transform-origin: 307.626px 439.619px;" id="eldsm0nul3apl" class="animable"></path><g id="elarq1wq7eadl"><g style="opacity: 0.2; transform-origin: 308.45px 448.08px;" class="animable" id="eltcvi89nqmem"><path d="M324.75,449.29l-19,.15s-3-.54-3.8-.64a5.37,5.37,0,0,0-2.3.68l-7.16.06s-.14-1.19-.34-2.92l32.05.54A16.3,16.3,0,0,1,324.75,449.29Z" style="fill: rgb(255, 255, 255); transform-origin: 308.45px 448.08px;" id="elpocmo2ll4ie" class="animable"></path></g></g><path d="M311.81,438.88a.27.27,0,0,0-.33,0,3.26,3.26,0,0,0-1.13,1.32c-.14.29.29.57.43.27a2.9,2.9,0,0,1,1-1.16.26.26,0,0,0,0-.4Z" style="fill: #2A5A63; transform-origin: 311.098px 439.711px;" id="el7p68ifhhtvf" class="animable"></path><path d="M310.29,438a.27.27,0,0,0-.33,0,3.32,3.32,0,0,0-1.13,1.32c-.14.29.29.57.43.27a2.9,2.9,0,0,1,1-1.16.26.26,0,0,0,0-.4Z" style="fill: #2A5A63; transform-origin: 309.578px 438.831px;" id="el1w4b2z6rcls" class="animable"></path><path d="M308.72,437.18a.27.27,0,0,0-.33,0,3.3,3.3,0,0,0-1.12,1.32c-.14.29.29.57.43.27a2.82,2.82,0,0,1,1-1.16.27.27,0,0,0,0-.4Z" style="fill: #2A5A63; transform-origin: 308.016px 438.011px;" id="elq2w0wj7xw0m" class="animable"></path><polygon points="227.73 413.02 224.24 438.62 215.9 439.04 213.2 414.36 227.73 413.02" style="fill: rgb(38, 50, 56); transform-origin: 220.465px 426.03px;" id="elqw9xkcgr7qq" class="animable"></polygon><path d="M208.8,450.5h18.66s.4-.78-.06-2.87c-.07-.32-.17-.68-.29-1.07,0,0,0,0,0-.06-.18-.57-.38-1.28-.59-2.05-.86-3.13-1.86-7.21-1.86-7.21s-3.11-6.64-6.74-5c-3.18,1.45-2.43,5.62-2.43,5.62a8.18,8.18,0,0,1-2.73,4.6c-1.49,1.33-3,2.36-3.69,4a5.09,5.09,0,0,0-.32,1,.59.59,0,0,1,0,.13A7.63,7.63,0,0,0,208.8,450.5Z" style="fill: rgb(38, 50, 56); transform-origin: 218.128px 441.24px;" id="el71xcetuhk7b" class="animable"></path><g id="elf9nn0wrmn1k"><g style="opacity: 0.2; transform-origin: 218.121px 449.065px;" class="animable" id="elxpw66tnuax9"><path d="M227.4,447.63c.46,2.09.06,2.87.06,2.87H208.8a7.63,7.63,0,0,1-.08-2.87Z" style="fill: rgb(255, 255, 255); transform-origin: 218.121px 449.065px;" id="eljeg7b91dq8p" class="animable"></path></g></g><path d="M216.23,438.92a2.52,2.52,0,0,1,3.37.21c.26.25.65-.14.39-.39a3.08,3.08,0,0,0-4.15-.21c-.28.22.12.61.39.39Z" style="fill: #2A5A63; transform-origin: 217.91px 438.518px;" id="elh8ka0ptyvb" class="animable"></path><path d="M215.71,440.67a2.5,2.5,0,0,1,3.37.21c.25.24.64-.15.39-.39a3.07,3.07,0,0,0-4.15-.21c-.28.21.11.6.39.39Z" style="fill: #2A5A63; transform-origin: 217.387px 440.264px;" id="elpwmnicclrqr" class="animable"></path><path d="M215.18,442.27a2.51,2.51,0,0,1,3.37.21.28.28,0,0,0,.39-.39,3.08,3.08,0,0,0-4.15-.21c-.28.22.11.6.39.39Z" style="fill: #2A5A63; transform-origin: 216.842px 441.853px;" id="el0i7jro2p326t" class="animable"></path><path d="M208.45,250.65l40.28.34,23.43-4.1s18.31,77.59,19.77,91.57,16.88,92.78,16.88,92.78l-20.44,3.26s-23.16-83-24.73-90.54c-1.36-6.59-16.42-48.85-20.27-59.59-.39,2.2-.78,4.41-1.19,6.6-1,9.91-4.09,41.5-5.45,53.25,0,0-5.11,71.08-5.83,91.24l-19.2-1C209.33,406.82,208.53,306,208.53,306h0C207.2,284.86,208.45,250.65,208.45,250.65Z" style="fill: #2A5A63; transform-origin: 258.364px 341.175px;" id="el0azisyq1hn6" class="animable"></path><g id="elcofvgpo73q9"><g style="opacity: 0.5; transform-origin: 243.598px 270.729px;" class="animable" id="elii1kiss9q2r"><path d="M263.19,261.35A23.7,23.7,0,0,0,279.08,277a.33.33,0,0,1-.18.63,24.37,24.37,0,0,1-16.34-16.15c-.13-.4.51-.58.63-.17Z" id="elgcsmoynbhs" class="animable" style="transform-origin: 270.912px 269.356px;"></path><path d="M242.73,261.35,244.05,281c0,.42.68.42.66,0-.24-3.36-.46-6.73-.68-10.1,1.62,1.25,3.51-.26,4-1.93a16.42,16.42,0,0,0-.14-8.63.33.33,0,0,0-.63.17,18.59,18.59,0,0,1,.53,5.8,7.77,7.77,0,0,1-.62,3.05c-.52,1-1.83,1.87-2.87.95a.32.32,0,0,0-.35-.06c-.2-3-.4-5.94-.6-8.91C243.36,260.92,242.71,260.92,242.73,261.35Z" id="el4q8lgdx1byj" class="animable" style="transform-origin: 245.634px 270.729px;"></path><path d="M223.46,262.46a16.53,16.53,0,0,1-15.23,16.64c-.42,0-.42-.61,0-.64a15.9,15.9,0,0,0,14.59-16,.32.32,0,0,1,.64,0Z" id="elrl5gtyhytyo" class="animable" style="transform-origin: 215.688px 270.621px;"></path></g></g><g id="elwlslkjaqlj"><rect x="255.19" y="252.48" width="13.87" height="6.02" style="opacity: 0.6; transform-origin: 262.125px 255.49px; transform: rotate(-5.25deg);" class="animable" id="el3b1hpb3uc0b"></rect></g><g id="elm39a77eeav"><rect x="225.03" y="255.03" width="13.87" height="6.02" style="opacity: 0.6; transform-origin: 231.965px 258.04px; transform: rotate(-2.27deg);" class="animable" id="elqwb017knmol"></rect></g><g id="elfxf8747rqqq"><rect x="239.94" y="254.01" width="13.87" height="6.02" style="opacity: 0.6; transform-origin: 246.875px 257.02px; transform: rotate(-5.25deg);" class="animable" id="elob047xhly4c"></rect></g><path d="M256.66,150.37a225.25,225.25,0,0,0-50.46,3.75l5.21,75.12a128.62,128.62,0,0,1-1,20c23.4,9,47.88,7.17,62.79-2.12,0-.11.32-.07-1.13-13.8-2.57-24.18-5.36-58.72-9.35-80.47C262.57,152.32,257.2,150.4,256.66,150.37Z" style="fill: rgb(255, 255, 255); transform-origin: 239.715px 202.661px;" id="elo09p6km1nke" class="animable"></path><path d="M233.71,196.42c-1.29-22.5-8.26-49-8.26-49-18.15,5.41-19.25,5.91-19.25,5.91s-1.33,21.26-1.16,38.72c0,5.61,5.32,32.27,5.32,36.28l-8.1,47.14c.18,3.77,24.51,2.41,33.59,1.42C238.92,276.53,235,218.92,233.71,196.42Z" style="fill: rgb(38, 50, 56); transform-origin: 219.629px 212.693px;" id="elwt3vhxn262" class="animable"></path><path d="M247.49,147.69S258,171.77,258.78,209s1.64,64.29,1.64,64.29,17.21,1.75,19-1.67c1-1.86-5.33-38.87-5.33-38.87s-4.7-75.23-6.17-79.43C267.91,153.27,247.12,147.6,247.49,147.69Z" style="fill: rgb(38, 50, 56); transform-origin: 263.506px 210.713px;" id="elpgn5vk381lp" class="animable"></path><path d="M231.73,141.94l-7.27,5.95L223,159.38a16.49,16.49,0,0,0,3.48,10.87l1.76,2.25-3.13,2.69a3.15,3.15,0,0,0-.92,3.44l9.79,27.6h0c-.19-7.26.37-20.32-2.4-39.46C230.56,159.24,231.86,150.16,231.73,141.94Z" style="fill: rgb(38, 50, 56); transform-origin: 228.482px 174.085px;" id="elixbdo4cm6o" class="animable"></path><g id="elgo8gfmxzgc4"><path d="M231.73,141.94l-7.27,5.95L223,159.38a16.49,16.49,0,0,0,3.48,10.87l1.76,2.25-3.13,2.69a3.15,3.15,0,0,0-.92,3.44l9.79,27.6h0c-.19-7.26.37-20.32-2.4-39.46C230.56,159.24,231.86,150.16,231.73,141.94Z" style="fill: rgb(255, 255, 255); isolation: isolate; opacity: 0.1; transform-origin: 228.482px 174.085px;" class="animable" id="eli9gd4u2wgy8"></path></g><path d="M245.47,147.45s3.66,3.36,5.79,11.31,7.33,42.93,7.44,47.34l.44-.36,3.53-30.36a5.29,5.29,0,0,0-2.33-3.64l-3.41-2.22h0A12.61,12.61,0,0,0,258.39,158c-1.37-3.72-3.08-7.93-4.12-9-2.33-2.25-6.69-4.56-9.63-6.11Z" style="fill: rgb(38, 50, 56); transform-origin: 253.655px 174.495px;" id="el19ypkxxazdv" class="animable"></path><polygon points="238.72 158.44 241.43 162.51 244.99 162.32 245.96 157.63 241.68 153.06 238.72 158.44" style="fill: #2A5A63; transform-origin: 242.34px 157.785px;" id="elt43kl7igct" class="animable"></polygon><g id="elz3zeo9fpsn"><polygon points="241.43 162.51 238.1 238.13 248.46 249.25 253.75 237.39 243.94 162.94 241.43 162.51" style="opacity: 0.2; transform-origin: 245.925px 205.88px;" class="animable" id="elawmxejgbk25"></polygon></g><polygon points="241.43 162.51 240.91 238.03 248.46 249.25 254.91 237.39 245.01 162.23 241.43 162.51" style="fill: #2A5A63; transform-origin: 247.91px 205.74px;" id="eltmzimfgj2ra" class="animable"></polygon><g id="el0mqe9lhooy3"><path d="M245.47,147.45s3.66,3.36,5.79,11.31,7.33,42.93,7.44,47.34l.44-.36,3.53-30.36a5.29,5.29,0,0,0-2.33-3.64l-3.41-2.22h0A12.61,12.61,0,0,0,258.39,158c-1.37-3.72-3.08-7.93-4.12-9-2.33-2.25-6.69-4.56-9.63-6.11Z" style="fill: rgb(255, 255, 255); isolation: isolate; opacity: 0.1; transform-origin: 253.655px 174.495px;" class="animable" id="el7b3xslbfvmn"></path></g><g id="el3ki8ejjn6ny"><path d="M231.16,158.74l6.31,3.77,4.42-8,4.93,5.77.86-8.41s-2.44,4.69-2.51,4.48-3.24-3.12-3.24-3.12L236,157.08l-4.68-2.61C231.34,154.53,231.16,158.74,231.16,158.74Z" style="opacity: 0.2; transform-origin: 239.42px 157.19px;" class="animable" id="elrt9vjczn3lo"></path></g><path d="M231.73,143.05l9.34,7.13,3.56-7.35,3.28,7.85-1.51,8.14-4.72-5.76s-4.33,7.78-4.68,7.93-5.67-6.43-5.67-6.43Z" style="fill: rgb(255, 255, 255); transform-origin: 239.62px 151.911px;" id="ellmyo4wg84j" class="animable"></path><path d="M231.7,170.58h11.1s-.43,10.94-1.18,13.26S240,190,240,199.31H229.26c0-9.36-.92-13.14-1.65-15.47s-1.16-13.26-1.16-13.26Z" style="fill: #2A5A63; transform-origin: 234.625px 184.945px;" id="elsvc335apja" class="animable"></path><g id="elt71gnnkgch"><path d="M231.7,170.58h11.1s-.43,10.94-1.18,13.26S240,190,240,199.31H229.26c0-9.36-.92-13.14-1.65-15.47s-1.16-13.26-1.16-13.26Z" style="fill: rgb(255, 255, 255); isolation: isolate; opacity: 0.4; transform-origin: 234.625px 184.945px;" class="animable" id="eluku3rdm2a3l"></path></g><g id="el9ebyllfuxbj"><path d="M241.28,180.42a18.39,18.39,0,0,1-.48,3.12c-.83,2.58-1.66,6.36-1.66,14.91h-9c0-8.5-.91-12.28-1.74-14.91a23.52,23.52,0,0,1-.48-3.12Z" style="fill: rgb(255, 255, 255); isolation: isolate; opacity: 0.4; transform-origin: 234.6px 189.435px;" class="animable" id="el0v2lftx0nunf"></path></g><path d="M227.92,181.72s7-3.28,7.63-2.56,1.61,2.21-.55,4.13c0,0,2.59.75,1.58,5l-.27.85s2.55,1.75.6,5.27-6.26,5.8-9.37,6.85-8.74-6.91-8.67-7.49l2.9-2.58c.94-5.62,5.16-12.41,5.16-12.41Z" style="fill: rgb(137, 85, 85); transform-origin: 228.257px 190.068px;" id="el0ela8nw761lo" class="animable"></path><g id="eljbg1pkdxqa"><polygon points="207.17 203.12 209.66 200.49 213.96 179.04 220.25 194.87 208.12 206.96 207.17 203.12" style="isolation: isolate; opacity: 0.2; transform-origin: 213.71px 193px;" class="animable" id="el51qqutpkk6l"></polygon></g><g id="elmfmicekw3i"><path d="M209.53,221.67l17.59-20.34a18.33,18.33,0,0,0,4.67-2h1.33L210.27,227Z" style="isolation: isolate; opacity: 0.2; transform-origin: 221.325px 213.165px;" class="animable" id="elf331pbup2rf"></path></g><path d="M218.58,193l-11.23,9.66L210,191.11h0l2.65-16-2.79-22.49s-11,.38-13.64,12.63c-.6,2.78-1.94,7.06-2.58,11.75h0c-1.64,11.9-4.87,24.2-4.87,38,0,9.57,10.17,13.14,12.85,12.33,7.07-2.14,26.33-25.2,26.33-25.2Z" style="fill: rgb(38, 50, 56); transform-origin: 208.36px 190.031px;" id="elazm2qy7jgbu" class="animable"></path><g id="elc5exvyx07vi"><path d="M209.64,200.45a11.63,11.63,0,0,0-7.43,7.71s-.66-2.53,1.45-5.84,6.63-4.52,6.63-4.52Z" style="isolation: isolate; opacity: 0.2; transform-origin: 206.201px 202.98px;" class="animable" id="elobq5ni1w32s"></path></g></g><g id="freepik--Table--inject-2" class="animable animator-hidden" style="transform-origin: 263.105px 332.18px;"><rect x="247.05" y="262.75" width="32.11" height="183.45" style="fill: rgb(38, 50, 56); transform-origin: 263.105px 354.475px;" id="elm7p41mg5di" class="animable"></rect><g id="eltqgoqvbs01"><rect x="247.05" y="262.75" width="32.11" height="183.45" style="fill: rgb(255, 255, 255); opacity: 0.3; transform-origin: 263.105px 354.475px;" class="animable" id="el9bkf7nwy5z"></rect></g><rect x="214.12" y="253.71" width="97.97" height="10.99" style="fill: rgb(38, 50, 56); transform-origin: 263.105px 259.205px;" id="elsnzczcl1hv" class="animable"></rect><g id="elq9sr0zu0fwi"><rect x="214.12" y="253.71" width="97.97" height="10.99" style="fill: rgb(255, 255, 255); opacity: 0.3; transform-origin: 263.105px 259.205px;" class="animable" id="el7vgjidp5q28"></rect></g><rect x="193.06" y="248.83" width="140.09" height="6.17" style="fill: rgb(38, 50, 56); transform-origin: 263.105px 251.915px;" id="elrzbqzbq04t" class="animable"></rect><g id="ele3tgpmdj4xt"><rect x="193.06" y="248.83" width="140.09" height="6.17" style="fill: rgb(255, 255, 255); opacity: 0.3; transform-origin: 263.105px 251.915px;" class="animable" id="elg7jp6y2umte"></rect></g><g id="elw4lvaugpoqs"><path d="M214.12,255h98v2.06c-.61.05-98,0-98,0A11.36,11.36,0,0,0,214.12,255Z" style="opacity: 0.2; transform-origin: 263.12px 256.041px;" class="animable" id="elbmvnwlbqjqa"></path></g><g id="elzf9cdobdag"><rect x="247.05" y="264.7" width="32.11" height="1.94" style="opacity: 0.2; transform-origin: 263.105px 265.67px;" class="animable" id="elemekbchmu6r"></rect></g><path d="M318.21,450.5H218.44a4.29,4.29,0,0,1,4.3-4.3H313.9a4.3,4.3,0,0,1,4.31,4.3Z" style="fill: rgb(38, 50, 56); transform-origin: 268.325px 448.35px;" id="el2epf5hdkyp3" class="animable"></path><g id="elqk5vinjzyhq"><path d="M318.21,450.5H218.44a4.29,4.29,0,0,1,4.3-4.3H313.9a4.3,4.3,0,0,1,4.31,4.3Z" style="fill: rgb(255, 255, 255); opacity: 0.3; transform-origin: 268.325px 448.35px;" class="animable" id="elf3yd6r0i4vf"></path></g><path d="M290.77,231.53c.06-4-.94-4.62-1.5-5.34s-1-1.12-1-2-.36-4.62-.43-5.83-.61-3-.45-3.61l0-.11a3,3,0,0,0-1.84-.33l-.38.08a2.23,2.23,0,0,1-1,.06l-.43-.09a2.45,2.45,0,0,0-.88-.11,2,2,0,0,0-.54.12,2.62,2.62,0,0,0,.09.39c.16.62-.37,2.41-.44,3.61s-.37,5-.4,5.83a3.2,3.2,0,0,1-1,2c-.55.72-1.55,1.35-1.47,5.34s.16,12.86.16,12.86c0,.41,0,.86,0,1.29a3.72,3.72,0,0,0,.93,2.43,2.71,2.71,0,0,0,1.88.58H285l2.83,0a2.92,2.92,0,0,0,1.78-.49c1.18-1,1-2.57,1-3.82C290.65,244.39,290.71,235.52,290.77,231.53Z" style="fill: #2A5A63; transform-origin: 284.934px 231.477px;" id="elczsze4yy8vj" class="animable"></path><rect x="282.15" y="213.86" width="5.5" height="1.54" rx="0.74" style="fill: #2A5A63; transform-origin: 284.9px 214.63px;" id="el0qtosfwt5ft" class="animable"></rect><g id="elcacazt7orsc"><g style="isolation: isolate; opacity: 0.4; transform-origin: 284.934px 231.284px;" class="animable" id="el6xpuycb26yu"><path d="M290.77,231.53c.06-4-.94-4.62-1.5-5.34s-1-1.12-1-2-.36-4.62-.43-5.83-.61-3-.45-3.61l0-.11a3,3,0,0,0-1.84-.33l-.38.08a2.23,2.23,0,0,1-1,.06l-.43-.09a2.45,2.45,0,0,0-.88-.11,2,2,0,0,0-.54.12,2.62,2.62,0,0,0,.09.39c.16.62-.37,2.41-.44,3.61s-.37,5-.4,5.83a3.2,3.2,0,0,1-1,2c-.55.72-1.55,1.35-1.47,5.34s.16,12.86.16,12.86c0,.41,0,.86,0,1.29a3.72,3.72,0,0,0,.93,2.43,2.71,2.71,0,0,0,1.88.58H285l2.83,0a2.92,2.92,0,0,0,1.78-.49c1.18-1,1-2.57,1-3.82C290.65,244.39,290.71,235.52,290.77,231.53Z" style="fill: rgb(255, 255, 255); transform-origin: 284.934px 231.477px;" id="elcx80fpxabrg" class="animable"></path><rect x="282.15" y="213.86" width="5.5" height="1.54" rx="0.74" style="fill: rgb(255, 255, 255); transform-origin: 284.9px 214.63px;" id="el8ntpfwymyvi" class="animable"></rect></g></g><g id="el7iqk7k6q9j9"><g style="isolation: isolate; opacity: 0.4; transform-origin: 284.864px 231.532px;" class="animable" id="elwi7x9x6hxwb"><path d="M288.43,226.87c-.07-.09-.13-.18-.2-.26a3.42,3.42,0,0,1-1-2.14c0-.45-.12-1.76-.22-3v0c-.08-1.08-.17-2.2-.2-2.76,0-.19,0-2.81-.07-3h-3.47c0,.22-.26,2.84-.27,3,0,.57-.12,1.69-.2,2.77v0c-.09,1.26-.19,2.57-.2,3a3.47,3.47,0,0,1-1,2.15l-.2.25c-.07.1-.15.19-.23.29-.49.57-1.15,1.35-1.09,4.6,0,1.43.06,2.87.07,4.31,0,2.52.09,5.06.08,7.58a4.28,4.28,0,0,0,.66,2.92c.64.81,2.18.76,3.19.77s2.24,0,3.35-.1a3.15,3.15,0,0,0,1.58-.51c.74-.57.57-2.06.57-2.81,0-1.88,0-3.77,0-5.66,0-2.17,0-4.35.07-6.52.05-3.25-.61-4-1.1-4.59Z" style="fill: rgb(255, 255, 255); transform-origin: 284.864px 231.532px;" id="elyauo7pu2frs" class="animable"></path></g></g><path d="M285.06,243.94h0a3.82,3.82,0,0,1-3.82-3.82v-5.34a3.82,3.82,0,0,1,3.82-3.82h0a3.82,3.82,0,0,1,3.83,3.82v5.34A3.82,3.82,0,0,1,285.06,243.94Z" style="fill: #2A5A63; transform-origin: 285.065px 237.45px;" id="ely479jde0p8" class="animable"></path><path d="M248.12,231.73c.06-4-.94-4.62-1.5-5.34s-1-1.12-1-2-.36-4.62-.43-5.83-.6-3-.44-3.61a.43.43,0,0,0,0-.11,3,3,0,0,0-1.84-.32,2.14,2.14,0,0,0-.38.07,2.08,2.08,0,0,1-1,.06l-.42-.09a2.79,2.79,0,0,0-.89-.11,2,2,0,0,0-.54.12q0,.16.09.39c.16.62-.37,2.41-.44,3.62s-.37,5-.4,5.82a3.2,3.2,0,0,1-1,2c-.55.72-1.55,1.35-1.47,5.34s.16,12.86.16,12.86c0,.42,0,.87,0,1.29a3.7,3.7,0,0,0,.93,2.43,2.71,2.71,0,0,0,1.88.58h2.83l2.83,0a2.92,2.92,0,0,0,1.78-.49c1.18-1,1-2.57,1-3.82C248,244.59,248.06,235.72,248.12,231.73Z" style="fill: #2A5A63; transform-origin: 242.289px 231.677px;" id="el8bhztzmu73a" class="animable"></path><rect x="239.5" y="214.06" width="5.5" height="1.54" rx="0.74" style="fill: #2A5A63; transform-origin: 242.25px 214.83px;" id="el3l5fqvbg284" class="animable"></rect><g id="eltii32vmyihl"><g style="isolation: isolate; opacity: 0.4; transform-origin: 242.289px 231.484px;" class="animable" id="elkspqgzvviml"><path d="M248.12,231.73c.06-4-.94-4.62-1.5-5.34s-1-1.12-1-2-.36-4.62-.43-5.83-.6-3-.44-3.61a.43.43,0,0,0,0-.11,3,3,0,0,0-1.84-.32,2.14,2.14,0,0,0-.38.07,2.08,2.08,0,0,1-1,.06l-.42-.09a2.79,2.79,0,0,0-.89-.11,2,2,0,0,0-.54.12q0,.16.09.39c.16.62-.37,2.41-.44,3.62s-.37,5-.4,5.82a3.2,3.2,0,0,1-1,2c-.55.72-1.55,1.35-1.47,5.34s.16,12.86.16,12.86c0,.42,0,.87,0,1.29a3.7,3.7,0,0,0,.93,2.43,2.71,2.71,0,0,0,1.88.58h2.83l2.83,0a2.92,2.92,0,0,0,1.78-.49c1.18-1,1-2.57,1-3.82C248,244.59,248.06,235.72,248.12,231.73Z" style="fill: rgb(255, 255, 255); transform-origin: 242.289px 231.677px;" id="elmz49b0fyond" class="animable"></path><rect x="239.5" y="214.06" width="5.5" height="1.54" rx="0.74" style="fill: rgb(255, 255, 255); transform-origin: 242.25px 214.83px;" id="elkehw7o39pae" class="animable"></rect></g></g><g id="elrtefrpsf6c"><g style="isolation: isolate; opacity: 0.4; transform-origin: 242.227px 231.734px;" class="animable" id="elwy29mj1jzi"><path d="M245.79,227.07l-.21-.26a3.42,3.42,0,0,1-1-2.14c0-.45-.12-1.76-.22-3v0c-.08-1.08-.17-2.2-.2-2.76,0-.19,0-2.81-.07-3h-3.46c0,.22-.27,2.85-.28,3,0,.57-.11,1.69-.19,2.77v0c-.09,1.26-.19,2.57-.2,3a3.42,3.42,0,0,1-1,2.15l-.2.25c-.07.1-.15.19-.23.29-.49.57-1.15,1.35-1.08,4.6,0,1.43,0,2.87.07,4.31,0,2.53.08,5.06.07,7.59a4.26,4.26,0,0,0,.66,2.91c.64.82,2.18.77,3.19.77a31.24,31.24,0,0,0,3.35-.1,3.12,3.12,0,0,0,1.58-.51c.74-.57.57-2.06.57-2.8,0-1.89,0-3.78,0-5.67,0-2.17,0-4.35.07-6.52,0-3.25-.61-4-1.1-4.59C245.94,227.26,245.86,227.17,245.79,227.07Z" style="fill: rgb(255, 255, 255); transform-origin: 242.227px 231.734px;" id="el8jhjce5vxvw" class="animable"></path></g></g><rect x="238.59" y="231.16" width="7.65" height="12.98" rx="3.83" style="fill: #2A5A63; transform-origin: 242.415px 237.65px;" id="el0ikmceaf3jga" class="animable"></rect><path d="M260.18,220h11.11s-.43,10.94-1.18,13.26-1.66,6.11-1.66,15.47h-10.7c0-9.36-.93-13.14-1.66-15.47S254.93,220,254.93,220Z" style="fill: #2A5A63; transform-origin: 263.11px 234.365px;" id="el7gn6oxg2sqo" class="animable"></path><g id="elf8epamj1m6"><path d="M260.18,220h11.11s-.43,10.94-1.18,13.26-1.66,6.11-1.66,15.47h-10.7c0-9.36-.93-13.14-1.66-15.47S254.93,220,254.93,220Z" style="fill: rgb(255, 255, 255); isolation: isolate; opacity: 0.4; transform-origin: 263.11px 234.365px;" class="animable" id="eldy7vj0kh8qh"></path></g><g id="elo1izyg418d"><path d="M269.76,229.83a18.24,18.24,0,0,1-.48,3.12c-.83,2.58-1.66,6.36-1.66,14.91h-9c0-8.5-.91-12.28-1.74-14.91a20.64,20.64,0,0,1-.48-3.12Z" style="fill: rgb(255, 255, 255); isolation: isolate; opacity: 0.4; transform-origin: 263.08px 238.845px;" class="animable" id="el1lqa3521la1"></path></g></g><g id="freepik--character-1--inject-2" class="animable" style="transform-origin: 142.789px 285.172px;"><path d="M142,254.33,120.41,346,96.23,426.38,87,423.56s1.79-34.85,8-61.56c1.43-6.15,5-12.77,5.72-17.75.67-4.36-.22-7.47.28-17.65.59-12.3,2.23-28.55,6.54-40.29,0,0-8.46-16.48-.12-33Z" style="fill: rgb(255, 181, 115); transform-origin: 114.5px 339.845px;" id="eltvgyglsik0i" class="animable"></path><path d="M163.15,343.46l-.83,87.61-.3,9.15-6.71-.38-2.6-16s-7.7-30.37-9.33-57.74c-.37-6.31,1.12-13.66.43-18.64-.61-4.37-2.34-7.11-4.78-17-2.95-12-6-28-5.24-40.49,0,0-12.81-13.38-9.53-31.62l33.4-8.88Z" style="fill: rgb(255, 181, 115); transform-origin: 143.436px 344.845px;" id="eld2jm8hm73xp" class="animable"></path><path d="M175.28,448.69a15.54,15.54,0,0,0-4.46-1.78h0s-4.85-3.53-7.36-14.32l-6.31-1.17a6.24,6.24,0,0,0-5.62,1.75,2.25,2.25,0,0,0-.39.64,21.86,21.86,0,0,0-.58,3.47,76.25,76.25,0,0,0,.15,11.9h1.18l.28-7.47c0-2.54,2.75.41,3.54,3.12s2.41,5.67,9.75,5.67C173.91,450.53,177.47,450.25,175.28,448.69Z" style="fill: rgb(38, 50, 56); transform-origin: 163.154px 440.905px;" id="elia4dsw9vnc" class="animable"></path><path d="M162.26,428.71a103.47,103.47,0,0,0,3.75,10.4,20.77,20.77,0,0,0,4.89,7.8s-5.49.81-7.93-2-5.88-12.29-11.44-11.72a9.82,9.82,0,0,1,1.57-2C154,430.23,162.26,428.71,162.26,428.71Z" style="fill: rgb(255, 181, 115); transform-origin: 161.215px 437.864px;" id="elqvpc736g7r" class="animable"></path><path d="M100.89,448.09a15.91,15.91,0,0,0-3.46-3.33h0s-3.16-5.1-1.4-16l-5.41-3.46a6.23,6.23,0,0,0-5.86-.51,2.25,2.25,0,0,0-.6.45,21.51,21.51,0,0,0-1.85,3A76.31,76.31,0,0,0,78,439.27l1.09.45,3.09-6.82c1-2.35,2.39,1.42,2.1,4.23s.09,6.16,6.89,8.93C98.93,449.28,102.33,450.36,100.89,448.09Z" style="fill: rgb(38, 50, 56); transform-origin: 89.6065px 436.791px;" id="elat0tc1iajnf" class="animable"></path><path d="M96.38,424.68a101.41,101.41,0,0,0-.46,11,20.86,20.86,0,0,0,1.58,9.07s-5.38-1.32-6.59-4.8-.81-13.61-6.17-15.18A9.32,9.32,0,0,1,87,423.56C88.16,423,96.38,424.68,96.38,424.68Z" style="fill: rgb(255, 181, 115); transform-origin: 91.12px 434.098px;" id="elv7xab3rewu" class="animable"></path><path d="M166.86,324.82v1.38s-21.35,5.82-35.49,5.86-36.94-5.47-36.94-5.47-.19-46.37,7-66.22,16.47-28.61,16.47-28.61l38.41,9.39c3.67,8,5.14,24.28,6.42,41.25A304.73,304.73,0,0,1,166.86,324.82Z" style="fill: #2A5A63; transform-origin: 130.645px 281.91px;" id="ell3cc5p9ri0m" class="animable"></path><path d="M104.2,177.55c-2.54-13.24,5.71-10.8,2.89-27.66-3.1-18.57,10.15-21.26,10.15-21.26s1.56-9.26,10.21-8.77,30.29,5.06,25.94,28c-2.53,13.38,1.91,14.36,4.19,20.4,3.22,8.53-7,16.18-.34,22,0,0-17.15,5-42.19,3.36C115.05,193.67,105.75,185.63,104.2,177.55Z" style="fill: rgb(38, 50, 56); transform-origin: 130.966px 156.896px;" id="elilosgqubfnj" class="animable"></path><path d="M155.75,184.63c-.48.31,7.56,23,8.2,23.45,2.33,1.69,22.54-19.49,22.54-19.49l6.5,6.24a141.53,141.53,0,0,1-17.87,21.57c-10.29,9.83-15.32,10.77-20.76,2.95-5-7.16-16.45-32-16.45-32Z" style="fill: rgb(255, 181, 115); transform-origin: 165.45px 204.602px;" id="els5t5a8ulfi" class="animable"></path><path d="M151.1,177.27a50,50,0,0,1,11.21,20.92l-19.24,4.6s-5.32-14-3.16-19.19C142.16,178.25,145.64,173.1,151.1,177.27Z" style="fill: #2A5A63; transform-origin: 150.852px 189.268px;" id="elrw6fqt71gs" class="animable"></path><g id="el2ltprpfrxr5"><path d="M151.1,177.27a50,50,0,0,1,11.21,20.92l-19.24,4.6s-5.32-14-3.16-19.19C142.16,178.25,145.64,173.1,151.1,177.27Z" style="isolation: isolate; opacity: 0.3; transform-origin: 150.852px 189.268px;" class="animable" id="elumxwqnd5q1d"></path></g><g id="elufc1ah9pllk"><g style="opacity: 0.3; transform-origin: 153.84px 193.53px;" class="animable" id="elwa28gn3he1d"><path d="M152.3,186.4a20.83,20.83,0,0,1,2.15,5.09,45.35,45.35,0,0,1,1.24,8.1l-3.7,1.07C152.13,195.71,152.15,191.34,152.3,186.4Z" id="eloq8xdo34qbr" class="animable" style="transform-origin: 153.84px 193.53px;"></path></g></g><path d="M104,201.12l-5.28-20.75c3.85-5.75,22.09-10.16,22.09-10.16l12.55.68s4.83,1.08,9,2.43c5.51,1.79,8.49,3.24,9.81,6.3,0,0,2.3,6.78.92,20.75-.38,3.84-1.25,24.11-.18,30.71l6.73,16.73c-22.94,17.86-52.52-2-52.52-2,1-3.15,4.59-9.57,5-12.65-.33-3.93-1.44-6.52-3.1-13.4C108.66,218.39,104.51,202.41,104,201.12Z" style="fill: #2A5A63; transform-origin: 129.18px 212.735px;" id="eldfnezvzb0uf" class="animable"></path><g id="elhsqtb15nbva"><path d="M104,201.12l-5.28-20.75c3.85-5.75,22.09-10.16,22.09-10.16l12.55.68s4.83,1.08,9,2.43c5.51,1.79,8.49,3.24,9.81,6.3,0,0,2.3,6.78.92,20.75-.38,3.84-1.25,24.11-.18,30.71l6.73,16.73c-22.94,17.86-52.52-2-52.52-2,1-3.15,4.59-9.57,5-12.65-.33-3.93-1.44-6.52-3.1-13.4C108.66,218.39,104.51,202.41,104,201.12Z" style="isolation: isolate; opacity: 0.3; transform-origin: 129.18px 212.735px;" class="animable" id="elhl3d9fewcq7"></path></g><path d="M182.66,193.35s-1.16-3.57.27-6.32,1.85-5.33,3.06-7.3,1.71,1.11,1.65,2.8-.12,3.61,1.16,3.45,10.14-6.81,11.94-6.83.7,1.51.7,1.51,2.19-1.56,3.05-.86c.22.18.44,1-.45,1.84-2,2-6.41,5.82-6.41,5.82.25-.22,6-4.62,7-5.17,1.24-.71,2.19-.41,2.58.32.56,1-6.43,6.75-6.56,7.19,0,0,5.16-2.63,6.59-2.1s-2,2.46-4.41,4.08c-2.24,1.49-6.46,4.56-8.89,5.84-3,1.59-5.36,2-7.88,0A10.76,10.76,0,0,1,182.66,193.35Z" style="fill: rgb(255, 181, 115); transform-origin: 194.897px 189.032px;" id="elknr8idu29z" class="animable"></path><g id="ele8is9wbkpz4"><path d="M196.11,185a.1.1,0,0,1-.09,0,.12.12,0,0,1,0-.18c1.6-1.44,3.28-2.82,5-4.11a.12.12,0,0,1,.17,0,.14.14,0,0,1,0,.18c-1.72,1.28-3.4,2.66-5,4.1A.11.11,0,0,1,196.11,185Z" style="opacity: 0.3; transform-origin: 198.601px 182.843px;" class="animable" id="ely51iepism4s"></path></g><g id="elbpl76ddtcro"><path d="M199.17,191.31a.13.13,0,0,1-.12-.08,14.26,14.26,0,0,0-5.07-6.41.12.12,0,0,1,0-.17.12.12,0,0,1,.17,0,14.57,14.57,0,0,1,5.17,6.51.14.14,0,0,1-.08.17Z" style="opacity: 0.3; transform-origin: 196.635px 187.972px;" class="animable" id="elb438rupokrg"></path></g><g id="elu2n9wv9vywm"><path d="M187.57,193.66a.11.11,0,0,1-.09,0,.13.13,0,0,1,0-.18,4.88,4.88,0,0,0,1.69-2.78,4.83,4.83,0,0,0-.48-3.23.12.12,0,0,1,.22-.11,5,5,0,0,1-1.27,6.31A.11.11,0,0,1,187.57,193.66Z" style="opacity: 0.3; transform-origin: 188.484px 190.482px;" class="animable" id="elwi52p69z9eh"></path></g><g id="ele3ouhd5qes"><path d="M153.45,218s8.8-4.65,9.47-6.65,1.58-7.34-4.53-9.79c-2-.82-5.61,1-5.61,1V217Z" style="opacity: 0.3; transform-origin: 158.091px 209.674px;" class="animable" id="elgtu04zmikfa"></path></g><path d="M113.32,197.55c-.54.16-.37,24.18.11,24.8,1.78,2.27,27-12.5,27-12.5l4.52,7.79a141.07,141.07,0,0,1-23.14,15.79c-12.6,6.6-20.18,5-23.24-4-2.81-8.27-1.68-30.1-1.68-30.1Z" style="fill: rgb(255, 181, 115); transform-origin: 120.808px 217.509px;" id="elvxcw43n9ypn" class="animable"></path><path d="M137.11,214.47s-.83-3.66.86-6.26,2.34-5.13,3.72-7,1.61,1.26,1.39,2.94-.46,3.58.83,3.54,10.73-5.83,12.53-5.68.55,1.56.55,1.56,2.33-1.34,3.12-.57c.2.21.35,1-.62,1.79-2.17,1.75-6.92,5.2-6.92,5.2.27-.2,6.44-4,7.43-4.49,1.31-.6,2.23-.21,2.55.56.45,1.09-7,6.11-7.2,6.54,0,0,4.21-3,5.59-2.37s-1.17,2.71-3.76,4.1c-2.38,1.27-6.71,4.38-9.25,5.43-3.13,1.3-5.52,1.47-7.84-.69A10.81,10.81,0,0,1,137.11,214.47Z" style="fill: rgb(255, 181, 115); transform-origin: 149.738px 210.676px;" id="elehsbbrulfuo" class="animable"></path><path d="M98.33,180.65c-3.75,3.43-5.08,22.14-5.08,22.14H113s2.63-14.6-1.3-19.82C109.28,179.73,104.36,175.13,98.33,180.65Z" style="fill: #2A5A63; transform-origin: 103.556px 190.434px;" id="el4zfkabtaswr" class="animable"></path><g id="elxyh7h02dp"><g style="isolation: isolate; opacity: 0.3; transform-origin: 103.556px 190.434px;" class="animable" id="el3ucabrd931r"><path d="M98.33,180.65c-3.75,3.43-5.08,22.14-5.08,22.14H113s2.63-14.6-1.3-19.82C109.28,179.73,104.36,175.13,98.33,180.65Z" id="el2ismo5pav8q" class="animable" style="transform-origin: 103.556px 190.434px;"></path></g></g><path d="M117.55,171.58s3.8,2.92,8.68,7.13a18,18,0,0,0,3.33,2.27c3.2,1.7,6.12,2.67,6.91,1.13a5.55,5.55,0,0,0,.41-1.1c.67-2.58.39-6.21-1.7-7.88-2.35-1.87-3.49-3.48-3.06-6a18.78,18.78,0,0,1,1.35-4.37l-2.72-1.63-9.7-9.79C122.16,157.33,122.66,168,117.55,171.58Z" style="fill: rgb(255, 181, 115); transform-origin: 127.377px 167.11px;" id="elqvgf8drxi5n" class="animable"></path><g id="eldndu16hezgu"><path d="M132,167.67c-2.67-1.58-5.59-4.32-5.24-7.46a14.31,14.31,0,0,1,.76-3.38L133,164A17.84,17.84,0,0,0,132,167.67Z" style="opacity: 0.2; transform-origin: 129.866px 162.25px;" class="animable" id="el65lgd9x9u67"></path></g><path d="M119.18,140.3c.91,10,1.09,14.19,6.23,19.41,7.73,7.86,19.62,5.21,21.67-4.66,1.84-8.89,0-23.68-9.74-27.87A12.81,12.81,0,0,0,119.18,140.3Z" style="fill: rgb(255, 181, 115); transform-origin: 133.402px 145.137px;" id="elv2wuqycr33" class="animable"></path><path d="M132.08,143.54c0,1.06.62,1.92,1.27,1.94s1.15-.83,1.1-1.89-.62-1.92-1.27-1.93S132,142.49,132.08,143.54Z" style="fill: rgb(38, 50, 56); transform-origin: 133.263px 143.57px;" id="el17dqybv1u66" class="animable"></path><path d="M141.9,143.51c0,1,.62,1.87,1.27,1.88s1.15-.8,1.1-1.83-.62-1.86-1.27-1.87S141.85,142.49,141.9,143.51Z" style="fill: rgb(38, 50, 56); transform-origin: 143.085px 143.54px;" id="el4q3u8nkle8n" class="animable"></path><path d="M130,139.87a.41.41,0,0,0,.35-.11,3.64,3.64,0,0,1,3.29-.92.44.44,0,0,0,.57-.33.52.52,0,0,0-.36-.61,4.47,4.47,0,0,0-4.17,1.11.49.49,0,0,0,0,.69A.46.46,0,0,0,130,139.87Z" style="fill: rgb(38, 50, 56); transform-origin: 131.88px 138.822px;" id="el88umqb0ai37" class="animable"></path><path d="M145.21,138.52a.37.37,0,0,0,.22-.22.54.54,0,0,0-.24-.64,4.14,4.14,0,0,0-4-.27.5.5,0,0,0,.51.84,3.3,3.3,0,0,1,3.2.25A.48.48,0,0,0,145.21,138.52Z" style="fill: rgb(38, 50, 56); transform-origin: 143.241px 137.765px;" id="elkygl4lnolx" class="animable"></path><path d="M139.23,143a33.64,33.64,0,0,0,3.32,6.05.78.78,0,0,1-.36,1.18,5,5,0,0,1-2.67,0Z" style="fill: rgb(213, 135, 69); transform-origin: 140.962px 146.706px;" id="el00t7q1h8wmi6" class="animable"></path><path d="M132.8,141.7l2.29-.54S133.84,142.87,132.8,141.7Z" style="fill: rgb(38, 50, 56); transform-origin: 133.945px 141.635px;" id="eljwiu6jh889l" class="animable"></path><path d="M142.76,141.71l2.29-.54S143.8,142.88,142.76,141.71Z" style="fill: rgb(38, 50, 56); transform-origin: 143.905px 141.645px;" id="el3fjaw5skjin" class="animable"></path><path d="M122.63,143.74s5.14-7.73,4.88-14c0,0,9.83-2.56,17.68,7.92,1.25,1.67,2,4.45,3.11,6.85,0,0,1.88-18.95-14.94-20.5s-20.09,22-11.9,30C121.46,154,119.45,148.58,122.63,143.74Z" style="fill: rgb(38, 50, 56); transform-origin: 132.762px 138.973px;" id="elcrpjbybymnf" class="animable"></path><path d="M116.16,148.42a8.05,8.05,0,0,0,4.84,3.77c2.64.66,4-3.58,3.1-6.22a5.3,5.3,0,0,0-6-3.44C115.61,143,114.82,146.08,116.16,148.42Z" style="fill: rgb(255, 181, 115); transform-origin: 119.945px 147.347px;" id="elo3lmkus0vm" class="animable"></path><g id="elh4uiyy60z9c"><path d="M121.73,148.14a.23.23,0,0,1-.24-.23,3.37,3.37,0,0,0-3.58-3.14.24.24,0,0,1-.26-.23.25.25,0,0,1,.23-.27,3.94,3.94,0,0,1,2.8.95,3.88,3.88,0,0,1,1.3,2.65.25.25,0,0,1-.23.27Z" style="opacity: 0.2; transform-origin: 119.815px 146.202px;" class="animable" id="elm9mxb86bn4"></path></g><path d="M138.47,152.38a22.82,22.82,0,0,0-1.89,2.74l-.55-.22c-2.46-1-3.28-2.26-3.44-3.38a3.82,3.82,0,0,1,.61-2.44,12.54,12.54,0,0,0,4.44,2.95C138.14,152.26,138.47,152.38,138.47,152.38Z" style="fill: rgb(38, 50, 56); transform-origin: 135.522px 152.1px;" id="elndzqnmbdid" class="animable"></path><path d="M137.64,152l-.58.79c-2.32-.94-3.83-1.91-4.27-2.91a3.41,3.41,0,0,1,.41-.83A12.54,12.54,0,0,0,137.64,152Z" style="fill: rgb(255, 255, 255); transform-origin: 135.215px 150.92px;" id="elusw1hzgzjqk" class="animable"></path><path d="M136,154.9c-2.46-1-3.28-2.26-3.44-3.38a8.36,8.36,0,0,1,2.52,1.65A3.14,3.14,0,0,1,136,154.9Z" style="fill: rgb(222, 87, 83); transform-origin: 134.28px 153.21px;" id="ele641nyu8ix" class="animable"></path></g><defs>     <filter id="active" height="200%">         <feMorphology in="SourceAlpha" result="DILATED" operator="dilate" radius="2"></feMorphology>                <feFlood flood-color="#32DFEC" flood-opacity="1" result="PINK"></feFlood>        <feComposite in="PINK" in2="DILATED" operator="in" result="OUTLINE"></feComposite>        <feMerge>            <feMergeNode in="OUTLINE"></feMergeNode>            <feMergeNode in="SourceGraphic"></feMergeNode>        </feMerge>    </filter>    <filter id="hover" height="200%">        <feMorphology in="SourceAlpha" result="DILATED" operator="dilate" radius="2"></feMorphology>                <feFlood flood-color="#ff0000" flood-opacity="0.5" result="PINK"></feFlood>        <feComposite in="PINK" in2="DILATED" operator="in" result="OUTLINE"></feComposite>        <feMerge>            <feMergeNode in="OUTLINE"></feMergeNode>            <feMergeNode in="SourceGraphic"></feMergeNode>        </feMerge>            <feColorMatrix type="matrix" values="0   0   0   0   0                0   1   0   0   0                0   0   0   0   0                0   0   0   1   0 "></feColorMatrix>    </filter></defs></svg>